<svg xmlns="http://www.w3.org/2000/svg" xmlns:xlink="http://www.w3.org/1999/xlink" id="Layer_1" x="0" y="0" enable-background="new 0 0 1920 1080" version="1.1" viewBox="0 0 1920 1080" xml:space="preserve"><style type="text/css">.st0{fill:#232328}.st1{fill:#0353b3}.st2{display:none}.st3{display:inline;fill:none;stroke:#191919;stroke-width:.75;stroke-miterlimit:10}.st4{fill:#1e1e1e}.st5{fill:none;stroke:#0353b3;stroke-width:5;stroke-miterlimit:10}.st5,.st6,.st7{display:inline}.st6{fill:none;stroke:#1e1e1e;stroke-width:2;stroke-miterlimit:10}.st7{fill:#d1d1d1}.st8{font-family:&apos;ArialMT&apos;}.st9{font-size:100px}.st10{font-size:48px}.st11{enable-background:new}.st12,.st13{fill:#d1d1d1}.st13{display:none;enable-background:new}.st14{fill:none;stroke:#ad0404;stroke-width:5;stroke-miterlimit:10}</style><g id="BG"><g><rect width="1920" height="1080" class="st0"/></g></g><g id="Graph"><g><polygon points="1920 568.8 1920 574.4 1767.9 650.5 1766.9 650.1 1550.2 572 1336.8 691.3 1124.2 981.7 897.9 487.5 688.9 744.1 688.1 744.3 471.5 798.9 470.5 797.9 251.4 571.1 47 870 45 872.9 45 864.1 47 861.1 250.7 563.3 253.3 566 473.1 793.4 686.1 739.6 899.1 478.1 1125.2 971.9 1333.4 687.5 1333.9 687.2 1549.7 566.5 1767.6 645" class="st1"/></g><g class="st2"><line x1="219.5" x2="219.5" y1="458.5" y2="1079.5" class="st3"/><line x1="436.5" x2="436.5" y1="459" y2="1080" class="st3"/><line x1="655.5" x2="655.5" y1="459" y2="1080" class="st3"/><line x1="1098.5" x2="1098.5" y1="459" y2="1080" class="st3"/><line x1="879.5" x2="879.5" y1="459" y2="1080" class="st3"/><line x1="1318.5" x2="1318.5" y1="459" y2="1080" class="st3"/><line x1="1539.5" x2="1539.5" y1="459" y2="1080" class="st3"/><line x1="1760.5" x2="1760.5" y1="459" y2="1080" class="st3"/><line x1=".5" x2="1919.5" y1="941.5" y2="941.5" class="st3"/><line x1="1" x2="1920" y1="863.5" y2="863.5" class="st3"/><line x1="1.5" x2="1920.5" y1="785.5" y2="785.5" class="st3"/><line x1="2" x2="1921" y1="707.5" y2="707.5" class="st3"/><line x1="2.5" x2="1921.5" y1="629.5" y2="629.5" class="st3"/><line x1="3" x2="1922" y1="551.5" y2="551.5" class="st3"/><line x1="3.5" x2="1922.5" y1="473.5" y2="473.5" class="st3"/></g><g><rect width="2" height="645" x="45" y="435" class="st4"/></g><g><rect width="1919" height="2" x=".5" y="1032.5" class="st4"/></g><g class="st2"><polyline points="1923.4 569.9 1767.8 647.7 1549.9 569.3 1335.1 689.4 1124.7 976.8 898.5 482.8 687.5 741.8 472.3 796.1 251.5 567.7 251 567.2 42.4 872.3" class="st5"/><line x1="46" x2="46" y1="435" y2="1080" class="st6"/><line x1=".5" x2="1919.5" y1="1033.5" y2="1033.5" class="st6"/></g></g><g id="Layer_3"><g class="st2"><text class="st7 st8 st9" transform="matrix(1 0 0 1 871.5525 172.875)">404!</text><text class="st7 st8 st10" transform="matrix(1 0 0 1 460.375 232.875)">Sorry. The page you are looking for was not found.</text></g><g class="st11"><path d="M903.9,172.9v-17.1h-31.1v-8.1l32.7-46.4h7.2v46.4h9.7v8.1h-9.7v17.1H903.9z M903.9,147.7v-32.3l-22.4,32.3 H903.9z" class="st12"/><path d="M931.3,137.6c0-8.5,0.9-15.3,2.6-20.4c1.7-5.2,4.3-9.1,7.8-11.9c3.4-2.8,7.8-4.2,13-4.2 c3.8,0,7.2,0.8,10.1,2.3c2.9,1.5,5.3,3.8,7.2,6.7c1.9,2.9,3.4,6.5,4.4,10.6c1.1,4.2,1.6,9.8,1.6,16.9c0,8.4-0.9,15.2-2.6,20.3 c-1.7,5.2-4.3,9.1-7.7,12c-3.4,2.8-7.8,4.2-13,4.2c-6.9,0-12.3-2.5-16.3-7.4C933.7,160.7,931.3,151,931.3,137.6z M940.4,137.6 c0,11.8,1.4,19.6,4.1,23.5c2.8,3.9,6.1,5.8,10.2,5.8c4,0,7.4-2,10.2-5.9s4.1-11.7,4.1-23.4c0-11.8-1.4-19.6-4.1-23.5 c-2.8-3.9-6.2-5.8-10.3-5.8c-4,0-7.3,1.7-9.7,5.1C941.9,117.8,940.4,125.8,940.4,137.6z" class="st12"/><path d="M1015.1,172.9v-17.1H984v-8.1l32.7-46.4h7.2v46.4h9.7v8.1h-9.7v17.1H1015.1z M1015.1,147.7v-32.3l-22.4,32.3 H1015.1z" class="st12"/><path d="M1049.7,155.1l-2.7-37.9v-15.9h10.9v15.9l-2.5,37.9H1049.7z M1047.4,172.9v-10h10.1v10H1047.4z" class="st12"/></g><g class="st11"><path d="M462.5,221.8l4.3-0.4c0.2,1.7,0.7,3.1,1.4,4.2s1.9,2,3.5,2.7s3.3,1,5.3,1c1.7,0,3.3-0.3,4.6-0.8 s2.3-1.2,3-2.1s1-1.9,1-2.9c0-1.1-0.3-2-0.9-2.8s-1.7-1.5-3.1-2c-0.9-0.4-3-0.9-6.1-1.7s-5.4-1.5-6.6-2.1 c-1.6-0.9-2.9-1.9-3.7-3.2s-1.2-2.7-1.2-4.3c0-1.7,0.5-3.4,1.5-4.9s2.4-2.7,4.3-3.4s4-1.2,6.3-1.2c2.5,0,4.8,0.4,6.7,1.2 s3.4,2,4.5,3.6s1.6,3.4,1.7,5.4l-4.4,0.3c-0.2-2.2-1-3.8-2.4-4.9s-3.3-1.7-6-1.7c-2.8,0-4.8,0.5-6,1.5s-1.9,2.2-1.9,3.6 c0,1.2,0.4,2.3,1.3,3c0.9,0.8,3.2,1.6,6.9,2.4s6.2,1.6,7.6,2.2c2,0.9,3.5,2.1,4.4,3.5s1.4,3,1.4,4.9c0,1.8-0.5,3.6-1.6,5.2 s-2.6,2.9-4.5,3.8s-4.2,1.3-6.6,1.3c-3.1,0-5.7-0.5-7.8-1.4s-3.8-2.3-4.9-4.1S462.6,224.1,462.5,221.8z" class="st12"/><path d="M494,220.4c0-4.6,1.3-8,3.8-10.2c2.1-1.8,4.8-2.8,7.8-2.8c3.4,0,6.2,1.1,8.4,3.4s3.3,5.3,3.3,9.3 c0,3.2-0.5,5.7-1.4,7.6s-2.4,3.3-4.2,4.3s-3.8,1.5-6,1.5c-3.5,0-6.3-1.1-8.4-3.4S494,224.6,494,220.4z M498.3,220.4 c0,3.2,0.7,5.6,2.1,7.2s3.1,2.4,5.3,2.4c2.1,0,3.8-0.8,5.2-2.4c1.4-1.6,2.1-4,2.1-7.3c0-3.1-0.7-5.4-2.1-7s-3.1-2.4-5.2-2.4 s-3.9,0.8-5.3,2.4S498.3,217.2,498.3,220.4z" class="st12"/><path d="M522.2,232.9V208h3.8v3.8c1-1.8,1.9-2.9,2.7-3.5s1.7-0.8,2.7-0.8c1.4,0,2.9,0.5,4.3,1.4l-1.5,3.9 c-1-0.6-2.1-0.9-3.1-0.9c-0.9,0-1.8,0.3-2.5,0.8s-1.3,1.3-1.6,2.3c-0.5,1.5-0.7,3.1-0.7,4.9v13H522.2z" class="st12"/><path d="M538.2,232.9V208h3.8v3.8c1-1.8,1.9-2.9,2.7-3.5s1.7-0.8,2.7-0.8c1.4,0,2.9,0.5,4.3,1.4l-1.5,3.9 c-1-0.6-2.1-0.9-3.1-0.9c-0.9,0-1.8,0.3-2.5,0.8s-1.3,1.3-1.6,2.3c-0.5,1.5-0.7,3.1-0.7,4.9v13H538.2z" class="st12"/><path d="M554,242.5l-0.5-4c0.9,0.3,1.7,0.4,2.4,0.4c0.9,0,1.7-0.2,2.3-0.5s1-0.8,1.4-1.3c0.3-0.4,0.7-1.5,1.3-3.1 c0.1-0.2,0.2-0.6,0.4-1l-9.4-24.9h4.5l5.2,14.4c0.7,1.8,1.3,3.8,1.8,5.8c0.5-1.9,1.1-3.8,1.7-5.7l5.3-14.5h4.2l-9.5,25.3 c-1,2.7-1.8,4.6-2.4,5.6c-0.8,1.4-1.6,2.4-2.6,3.1s-2.1,1-3.5,1C555.9,243,555,242.8,554,242.5z" class="st12"/><path d="M575.9,232.9v-4.8h4.8v4.8H575.9z" class="st12"/><path d="M609.7,232.9v-30.3h-11.3v-4.1h27.2v4.1h-11.4v30.3H609.7z" class="st12"/><path d="M629.8,232.9v-34.4h4.2v12.3c2-2.3,4.5-3.4,7.5-3.4c1.8,0,3.4,0.4,4.8,1.1s2.3,1.7,2.9,3s0.9,3.1,0.9,5.6 v15.8h-4.2v-15.8c0-2.1-0.5-3.6-1.4-4.6s-2.2-1.4-3.9-1.4c-1.3,0-2.4,0.3-3.5,1s-1.9,1.5-2.4,2.6s-0.7,2.6-0.7,4.6v13.6 L629.8,232.9L629.8,232.9z" class="st12"/><path d="M673.5,224.9l4.4,0.5c-0.7,2.5-2,4.5-3.8,5.9s-4.2,2.1-7.1,2.1c-3.6,0-6.5-1.1-8.7-3.4s-3.2-5.4-3.2-9.4 c0-4.2,1.1-7.4,3.2-9.8s5-3.5,8.4-3.5c3.3,0,6,1.1,8.2,3.4s3.2,5.5,3.2,9.6c0,0.3,0,0.6,0,1.1h-18.6c0.2,2.7,0.9,4.8,2.3,6.3 s3.1,2.2,5.2,2.2c1.5,0,2.9-0.4,4-1.2S672.9,226.6,673.5,224.9z M659.7,218h13.9c-0.2-2.1-0.7-3.7-1.6-4.7 c-1.3-1.6-3.1-2.4-5.2-2.4c-1.9,0-3.6,0.6-4.9,1.9S659.8,215.9,659.7,218z" class="st12"/><path d="M696.5,242.4V208h3.8v3.2c0.9-1.3,1.9-2.2,3.1-2.8s2.5-0.9,4.1-0.9c2.1,0,4,0.5,5.6,1.6s2.9,2.6,3.7,4.6 s1.2,4.2,1.2,6.6c0,2.5-0.5,4.8-1.4,6.9s-2.2,3.6-4,4.7s-3.6,1.6-5.5,1.6c-1.4,0-2.7-0.3-3.8-0.9s-2-1.3-2.8-2.3v12.1L696.5,242.4 L696.5,242.4z M700.3,220.6c0,3.2,0.6,5.6,1.9,7.1s2.9,2.3,4.7,2.3c1.9,0,3.5-0.8,4.8-2.4s2-4,2-7.4c0-3.2-0.7-5.5-2-7.1 s-2.9-2.4-4.7-2.4s-3.4,0.8-4.8,2.5S700.3,217.4,700.3,220.6z" class="st12"/><path d="M739.4,229.8c-1.6,1.3-3.1,2.3-4.5,2.8s-3,0.8-4.7,0.8c-2.7,0-4.8-0.7-6.3-2s-2.2-3-2.2-5.1 c0-1.2,0.3-2.3,0.8-3.3s1.3-1.8,2.2-2.4s1.9-1.1,3-1.4c0.8-0.2,2.1-0.4,3.8-0.6c3.4-0.4,5.9-0.9,7.5-1.5c0-0.6,0-0.9,0-1.1 c0-1.7-0.4-2.9-1.2-3.6c-1.1-1-2.7-1.4-4.8-1.4c-2,0-3.4,0.3-4.4,1s-1.6,1.9-2.1,3.7l-4.1-0.6c0.4-1.8,1-3.2,1.9-4.3 s2.1-1.9,3.7-2.5s3.5-0.9,5.6-0.9s3.9,0.3,5.2,0.8s2.3,1.1,2.9,1.9s1.1,1.7,1.3,2.9c0.1,0.7,0.2,2,0.2,3.9v5.6 c0,3.9,0.1,6.4,0.3,7.4s0.5,2,1.1,3h-4.4C739.9,232,739.6,231,739.4,229.8z M739.1,220.4c-1.5,0.6-3.8,1.2-6.9,1.6 c-1.7,0.3-3,0.5-3.7,0.8s-1.3,0.8-1.7,1.4s-0.6,1.3-0.6,2c0,1.1,0.4,2.1,1.3,2.8s2.1,1.1,3.7,1.1c1.6,0,3.1-0.4,4.3-1.1 s2.2-1.7,2.8-2.9c0.5-1,0.7-2.4,0.7-4.2v-1.5H739.1z" class="st12"/><path d="M749.1,234.9l4.1,0.6c0.2,1.3,0.6,2.2,1.4,2.8c1,0.8,2.5,1.2,4.3,1.2c2,0,3.5-0.4,4.5-1.2s1.8-1.9,2.2-3.3 c0.2-0.9,0.3-2.7,0.3-5.4c-1.8,2.2-4.1,3.3-6.9,3.3c-3.4,0-6.1-1.2-7.9-3.7s-2.8-5.4-2.8-8.9c0-2.4,0.4-4.6,1.3-6.6 s2.1-3.6,3.7-4.7s3.6-1.6,5.8-1.6c2.9,0,5.4,1.2,7.3,3.6v-3h3.9v21.5c0,3.9-0.4,6.6-1.2,8.2s-2,2.9-3.8,3.8s-3.8,1.4-6.3,1.4 c-3,0-5.4-0.7-7.2-2S749.1,237.6,749.1,234.9z M752.6,220c0,3.3,0.6,5.6,1.9,7.1s2.9,2.3,4.9,2.3c1.9,0,3.6-0.7,4.9-2.2s2-3.8,2-7 c0-3-0.7-5.3-2-6.9s-3-2.3-4.9-2.3s-3.5,0.8-4.8,2.3S752.6,217,752.6,220z" class="st12"/><path d="M793.6,224.9l4.4,0.5c-0.7,2.5-2,4.5-3.8,5.9s-4.2,2.1-7.1,2.1c-3.6,0-6.5-1.1-8.7-3.4s-3.2-5.4-3.2-9.4 c0-4.2,1.1-7.4,3.2-9.8s5-3.5,8.4-3.5c3.3,0,6,1.1,8.2,3.4s3.2,5.5,3.2,9.6c0,0.3,0,0.6,0,1.1h-18.6c0.2,2.7,0.9,4.8,2.3,6.3 s3.1,2.2,5.2,2.2c1.5,0,2.9-0.4,4-1.2S793,226.6,793.6,224.9z M779.8,218h13.9c-0.2-2.1-0.7-3.7-1.6-4.7c-1.3-1.6-3.1-2.4-5.2-2.4 c-1.9,0-3.6,0.6-4.9,1.9S779.9,215.9,779.8,218z" class="st12"/><path d="M816.4,242.5l-0.5-4c0.9,0.3,1.7,0.4,2.4,0.4c0.9,0,1.7-0.2,2.3-0.5s1-0.8,1.4-1.3c0.3-0.4,0.7-1.5,1.3-3.1 c0.1-0.2,0.2-0.6,0.4-1l-9.4-24.9h4.5l5.2,14.4c0.7,1.8,1.3,3.8,1.8,5.8c0.5-1.9,1.1-3.8,1.7-5.7l5.3-14.5h4.2l-9.5,25.3 c-1,2.7-1.8,4.6-2.4,5.6c-0.8,1.4-1.6,2.4-2.6,3.1s-2.1,1-3.5,1C818.3,243,817.4,242.8,816.4,242.5z" class="st12"/><path d="M839.1,220.4c0-4.6,1.3-8,3.8-10.2c2.1-1.8,4.8-2.8,7.8-2.8c3.4,0,6.2,1.1,8.4,3.4s3.3,5.3,3.3,9.3 c0,3.2-0.5,5.7-1.4,7.6s-2.4,3.3-4.2,4.3s-3.8,1.5-6,1.5c-3.5,0-6.3-1.1-8.4-3.4S839.1,224.6,839.1,220.4z M843.4,220.4 c0,3.2,0.7,5.6,2.1,7.2s3.1,2.4,5.3,2.4c2.1,0,3.8-0.8,5.2-2.4s2.1-4,2.1-7.3c0-3.1-0.7-5.4-2.1-7s-3.1-2.4-5.2-2.4 c-2.1,0-3.9,0.8-5.3,2.4S843.4,217.2,843.4,220.4z" class="st12"/><path d="M883.6,232.9v-3.7c-1.9,2.8-4.6,4.2-7.9,4.2c-1.5,0-2.8-0.3-4.1-0.8s-2.2-1.3-2.8-2.1s-1.1-1.9-1.3-3.1 c-0.2-0.8-0.3-2.1-0.3-3.9V208h4.2v13.8c0,2.2,0.1,3.7,0.3,4.5c0.3,1.1,0.8,2,1.7,2.6s1.9,0.9,3.2,0.9s2.5-0.3,3.6-1 s1.9-1.5,2.4-2.6s0.7-2.7,0.7-4.9V208h4.2v24.9H883.6z" class="st12"/><path d="M923.6,229.8c-1.6,1.3-3.1,2.3-4.5,2.8s-3,0.8-4.7,0.8c-2.7,0-4.8-0.7-6.3-2s-2.2-3-2.2-5.1 c0-1.2,0.3-2.3,0.8-3.3s1.3-1.8,2.2-2.4s1.9-1.1,3-1.4c0.8-0.2,2.1-0.4,3.8-0.6c3.4-0.4,5.9-0.9,7.5-1.5c0-0.6,0-0.9,0-1.1 c0-1.7-0.4-2.9-1.2-3.6c-1.1-1-2.7-1.4-4.8-1.4c-2,0-3.4,0.3-4.4,1s-1.6,1.9-2.1,3.7l-4.1-0.6c0.4-1.8,1-3.2,1.9-4.3 s2.1-1.9,3.7-2.5s3.5-0.9,5.6-0.9s3.9,0.3,5.2,0.8s2.3,1.1,2.9,1.9s1.1,1.7,1.3,2.9c0.1,0.7,0.2,2,0.2,3.9v5.6 c0,3.9,0.1,6.4,0.3,7.4s0.5,2,1.1,3h-4.4C924,232,923.7,231,923.6,229.8z M923.2,220.4c-1.5,0.6-3.8,1.2-6.9,1.6 c-1.7,0.3-3,0.5-3.7,0.8s-1.3,0.8-1.7,1.4s-0.6,1.3-0.6,2c0,1.1,0.4,2.1,1.3,2.8s2.1,1.1,3.7,1.1c1.6,0,3.1-0.4,4.3-1.1 s2.2-1.7,2.8-2.9c0.5-1,0.7-2.4,0.7-4.2v-1.5H923.2z" class="st12"/><path d="M934,232.9V208h3.8v3.8c1-1.8,1.9-2.9,2.7-3.5s1.7-0.8,2.7-0.8c1.4,0,2.9,0.5,4.3,1.4l-1.5,3.9 c-1-0.6-2.1-0.9-3.1-0.9c-0.9,0-1.8,0.3-2.5,0.8s-1.3,1.3-1.6,2.3c-0.5,1.5-0.7,3.1-0.7,4.9v13H934z" class="st12"/><path d="M967.1,224.9l4.4,0.5c-0.7,2.5-2,4.5-3.8,5.9s-4.2,2.1-7.1,2.1c-3.6,0-6.5-1.1-8.7-3.4s-3.2-5.4-3.2-9.4 c0-4.2,1.1-7.4,3.2-9.8s5-3.5,8.4-3.5c3.3,0,6,1.1,8.2,3.4s3.2,5.5,3.2,9.6c0,0.3,0,0.6,0,1.1H953c0.2,2.7,0.9,4.8,2.3,6.3 s3.1,2.2,5.2,2.2c1.5,0,2.9-0.4,4-1.2S966.4,226.6,967.1,224.9z M953.2,218h13.9c-0.2-2.1-0.7-3.7-1.6-4.7 c-1.3-1.6-3.1-2.4-5.2-2.4c-1.9,0-3.6,0.6-4.9,1.9S953.4,215.9,953.2,218z" class="st12"/><path d="M990,232.9v-34.4h4.2v34.4H990z" class="st12"/><path d="M999.2,220.4c0-4.6,1.3-8,3.8-10.2c2.1-1.8,4.8-2.8,7.8-2.8c3.4,0,6.2,1.1,8.4,3.4s3.3,5.3,3.3,9.3 c0,3.2-0.5,5.7-1.4,7.6s-2.4,3.3-4.2,4.3s-3.8,1.5-6,1.5c-3.5,0-6.3-1.1-8.4-3.4S999.2,224.6,999.2,220.4z M1003.5,220.4 c0,3.2,0.7,5.6,2.1,7.2s3.1,2.4,5.3,2.4c2.1,0,3.8-0.8,5.2-2.4s2.1-4,2.1-7.3c0-3.1-0.7-5.4-2.1-7s-3.1-2.4-5.2-2.4 c-2.1,0-3.9,0.8-5.3,2.4S1003.5,217.2,1003.5,220.4z" class="st12"/><path d="M1025.9,220.4c0-4.6,1.3-8,3.8-10.2c2.1-1.8,4.8-2.8,7.8-2.8c3.4,0,6.2,1.1,8.4,3.4s3.3,5.3,3.3,9.3 c0,3.2-0.5,5.7-1.4,7.6s-2.4,3.3-4.2,4.3s-3.8,1.5-6,1.5c-3.5,0-6.3-1.1-8.4-3.4S1025.9,224.6,1025.9,220.4z M1030.2,220.4 c0,3.2,0.7,5.6,2.1,7.2s3.1,2.4,5.3,2.4c2.1,0,3.8-0.8,5.2-2.4s2.1-4,2.1-7.3c0-3.1-0.7-5.4-2.1-7s-3.1-2.4-5.2-2.4 s-3.9,0.8-5.3,2.4S1030.2,217.2,1030.2,220.4z" class="st12"/><path d="M1054.1,232.9v-34.4h4.2v19.6l10-10.1h5.5l-9.5,9.2l10.5,15.7h-5.2l-8.2-12.7l-3,2.9v9.9L1054.1,232.9 L1054.1,232.9z" class="st12"/><path d="M1078.1,203.4v-4.9h4.2v4.9H1078.1z M1078.1,232.9V208h4.2v24.9H1078.1z" class="st12"/><path d="M1088.8,232.9V208h3.8v3.5c1.8-2.7,4.5-4.1,7.9-4.1c1.5,0,2.9,0.3,4.1,0.8s2.2,1.2,2.8,2.1s1.1,1.9,1.3,3.1 c0.2,0.8,0.2,2.1,0.2,4.1v15.3h-4.2v-15.1c0-1.7-0.2-3-0.5-3.9s-0.9-1.5-1.7-2s-1.8-0.8-2.9-0.8c-1.8,0-3.3,0.6-4.7,1.7 s-2,3.3-2,6.5v13.6L1088.8,232.9L1088.8,232.9z" class="st12"/><path d="M1114.7,234.9l4.1,0.6c0.2,1.3,0.6,2.2,1.4,2.8c1,0.8,2.5,1.2,4.3,1.2c2,0,3.5-0.4,4.5-1.2s1.8-1.9,2.2-3.3 c0.2-0.9,0.3-2.7,0.3-5.4c-1.8,2.2-4.1,3.3-6.9,3.3c-3.4,0-6.1-1.2-7.9-3.7s-2.8-5.4-2.8-8.9c0-2.4,0.4-4.6,1.3-6.6 s2.1-3.6,3.7-4.7s3.6-1.6,5.8-1.6c2.9,0,5.4,1.2,7.3,3.6v-3h3.9v21.5c0,3.9-0.4,6.6-1.2,8.2s-2,2.9-3.8,3.8s-3.8,1.4-6.3,1.4 c-3,0-5.4-0.7-7.2-2S1114.6,237.6,1114.7,234.9z M1118.2,220c0,3.3,0.6,5.6,1.9,7.1s2.9,2.3,4.9,2.3c1.9,0,3.6-0.7,4.9-2.2 s2-3.8,2-7c0-3-0.7-5.3-2-6.9s-3-2.3-4.9-2.3s-3.5,0.8-4.8,2.3S1118.2,217,1118.2,220z" class="st12"/><path d="M1156.5,232.9v-21.6h-3.7V208h3.7v-2.6c0-1.7,0.1-2.9,0.4-3.7c0.4-1.1,1.1-2,2.1-2.7s2.5-1,4.3-1 c1.2,0,2.5,0.1,3.9,0.4l-0.6,3.7c-0.9-0.2-1.7-0.2-2.5-0.2c-1.3,0-2.2,0.3-2.7,0.8s-0.8,1.6-0.8,3.1v2.3h4.9v3.3h-4.9V233h-4.1 V232.9z" class="st12"/><path d="M1167.3,220.4c0-4.6,1.3-8,3.8-10.2c2.1-1.8,4.8-2.8,7.8-2.8c3.4,0,6.2,1.1,8.4,3.4s3.3,5.3,3.3,9.3 c0,3.2-0.5,5.7-1.4,7.6s-2.4,3.3-4.2,4.3s-3.8,1.5-6,1.5c-3.5,0-6.3-1.1-8.4-3.4S1167.3,224.6,1167.3,220.4z M1171.6,220.4 c0,3.2,0.7,5.6,2.1,7.2s3.1,2.4,5.3,2.4c2.1,0,3.8-0.8,5.2-2.4s2.1-4,2.1-7.3c0-3.1-0.7-5.4-2.1-7s-3.1-2.4-5.2-2.4 s-3.9,0.8-5.3,2.4S1171.6,217.2,1171.6,220.4z" class="st12"/><path d="M1195.5,232.9V208h3.8v3.8c1-1.8,1.9-2.9,2.7-3.5s1.7-0.8,2.7-0.8c1.4,0,2.9,0.5,4.3,1.4l-1.5,3.9 c-1-0.6-2.1-0.9-3.1-0.9c-0.9,0-1.8,0.3-2.5,0.8s-1.3,1.3-1.6,2.3c-0.5,1.5-0.7,3.1-0.7,4.9v13H1195.5z" class="st12"/><path d="M1229.5,232.9l-7.6-24.9h4.4l4,14.4l1.5,5.3c0.1-0.3,0.5-2,1.3-5.1l4-14.6h4.3l3.7,14.4l1.2,4.8l1.4-4.8 l4.3-14.4h4.1l-7.8,24.9h-4.4l-4-14.9l-1-4.2l-5,19.1H1229.5z" class="st12"/><path d="M1275.8,229.8c-1.6,1.3-3.1,2.3-4.5,2.8s-3,0.8-4.7,0.8c-2.7,0-4.8-0.7-6.3-2s-2.2-3-2.2-5.1 c0-1.2,0.3-2.3,0.8-3.3s1.3-1.8,2.2-2.4s1.9-1.1,3-1.4c0.8-0.2,2.1-0.4,3.8-0.6c3.4-0.4,5.9-0.9,7.5-1.5c0-0.6,0-0.9,0-1.1 c0-1.7-0.4-2.9-1.2-3.6c-1.1-1-2.7-1.4-4.8-1.4c-2,0-3.4,0.3-4.4,1s-1.6,1.9-2.1,3.7l-4.1-0.6c0.4-1.8,1-3.2,1.9-4.3 s2.1-1.9,3.7-2.5s3.5-0.9,5.6-0.9s3.9,0.3,5.2,0.8s2.3,1.1,2.9,1.9s1.1,1.7,1.3,2.9c0.1,0.7,0.2,2,0.2,3.9v5.6 c0,3.9,0.1,6.4,0.3,7.4s0.5,2,1.1,3h-4.4C1276.2,232,1275.9,231,1275.8,229.8z M1275.4,220.4c-1.5,0.6-3.8,1.2-6.9,1.6 c-1.7,0.3-3,0.5-3.7,0.8s-1.3,0.8-1.7,1.4s-0.6,1.3-0.6,2c0,1.1,0.4,2.1,1.3,2.8s2.1,1.1,3.7,1.1s3.1-0.4,4.3-1.1s2.2-1.7,2.8-2.9 c0.5-1,0.7-2.4,0.7-4.2L1275.4,220.4L1275.4,220.4z" class="st12"/><path d="M1284.5,225.4l4.2-0.7c0.2,1.7,0.9,3,2,3.8s2.6,1.3,4.5,1.3s3.4-0.4,4.3-1.2s1.4-1.7,1.4-2.8 c0-1-0.4-1.7-1.2-2.3c-0.6-0.4-2-0.9-4.3-1.4c-3.1-0.8-5.2-1.5-6.4-2s-2.1-1.4-2.7-2.4s-0.9-2.1-0.9-3.3c0-1.1,0.3-2.1,0.8-3.1 s1.2-1.7,2.1-2.4c0.7-0.5,1.6-0.9,2.7-1.2s2.3-0.5,3.6-0.5c2,0,3.7,0.3,5.1,0.8s2.6,1.3,3.3,2.3s1.2,2.2,1.5,3.9l-4.1,0.6 c-0.2-1.3-0.7-2.3-1.6-3s-2.2-1.1-3.8-1.1c-1.9,0-3.3,0.3-4.1,1s-1.2,1.4-1.2,2.3c0,0.5,0.2,1,0.5,1.5s0.9,0.8,1.6,1.1 c0.4,0.2,1.7,0.5,3.7,1.1c3,0.8,5.1,1.4,6.2,2s2.1,1.2,2.8,2.2s1,2.2,1,3.6c0,1.4-0.4,2.7-1.2,4s-2,2.2-3.6,2.9s-3.3,1-5.3,1 c-3.2,0-5.7-0.7-7.4-2S1285,228.1,1284.5,225.4z" class="st12"/><path d="M1323.6,232.9V208h3.8v3.5c1.8-2.7,4.5-4.1,7.9-4.1c1.5,0,2.9,0.3,4.1,0.8s2.2,1.2,2.8,2.1s1.1,1.9,1.3,3.1 c0.2,0.8,0.2,2.1,0.2,4.1v15.3h-4.2v-15.1c0-1.7-0.2-3-0.5-3.9s-0.9-1.5-1.7-2s-1.8-0.8-2.9-0.8c-1.8,0-3.3,0.6-4.7,1.7 s-2,3.3-2,6.5v13.6L1323.6,232.9L1323.6,232.9z" class="st12"/><path d="M1348.7,220.4c0-4.6,1.3-8,3.8-10.2c2.1-1.8,4.8-2.8,7.8-2.8c3.4,0,6.2,1.1,8.4,3.4s3.3,5.3,3.3,9.3 c0,3.2-0.5,5.7-1.4,7.6s-2.4,3.3-4.2,4.3s-3.8,1.5-6,1.5c-3.5,0-6.3-1.1-8.4-3.4S1348.7,224.6,1348.7,220.4z M1353,220.4 c0,3.2,0.7,5.6,2.1,7.2s3.1,2.4,5.3,2.4c2.1,0,3.8-0.8,5.2-2.4s2.1-4,2.1-7.3c0-3.1-0.7-5.4-2.1-7s-3.1-2.4-5.2-2.4 s-3.9,0.8-5.3,2.4S1353,217.2,1353,220.4z" class="st12"/><path d="M1386.2,229.1l0.6,3.7c-1.2,0.3-2.3,0.4-3.2,0.4c-1.5,0-2.7-0.2-3.6-0.7s-1.4-1.1-1.8-1.9s-0.5-2.4-0.5-5 v-14.3h-3.1V208h3.1v-6.2l4.2-2.5v8.7h4.2v3.3h-4.2v14.6c0,1.2,0.1,2,0.2,2.3s0.4,0.6,0.7,0.8s0.8,0.3,1.4,0.3 C1384.8,229.3,1385.4,229.2,1386.2,229.1z" class="st12"/><path d="M1404.6,232.9v-21.6h-3.7V208h3.7v-2.6c0-1.7,0.1-2.9,0.4-3.7c0.4-1.1,1.1-2,2.1-2.7s2.5-1,4.3-1 c1.2,0,2.5,0.1,3.9,0.4l-0.6,3.7c-0.9-0.2-1.7-0.2-2.5-0.2c-1.3,0-2.2,0.3-2.7,0.8s-0.8,1.6-0.8,3.1v2.3h4.9v3.3h-4.9V233h-4.1 V232.9z" class="st12"/><path d="M1415.4,220.4c0-4.6,1.3-8,3.8-10.2c2.1-1.8,4.8-2.8,7.8-2.8c3.4,0,6.2,1.1,8.4,3.4s3.3,5.3,3.3,9.3 c0,3.2-0.5,5.7-1.4,7.6s-2.4,3.3-4.2,4.3s-3.8,1.5-6,1.5c-3.5,0-6.3-1.1-8.4-3.4S1415.4,224.6,1415.4,220.4z M1419.7,220.4 c0,3.2,0.7,5.6,2.1,7.2s3.1,2.4,5.3,2.4c2.1,0,3.8-0.8,5.2-2.4s2.1-4,2.1-7.3c0-3.1-0.7-5.4-2.1-7s-3.1-2.4-5.2-2.4 s-3.9,0.8-5.3,2.4S1419.7,217.2,1419.7,220.4z" class="st12"/><path d="M1460,232.9v-3.7c-1.9,2.8-4.6,4.2-7.9,4.2c-1.5,0-2.8-0.3-4.1-0.8s-2.2-1.3-2.8-2.1s-1.1-1.9-1.3-3.1 c-0.2-0.8-0.3-2.1-0.3-3.9V208h4.2v13.8c0,2.2,0.1,3.7,0.3,4.5c0.3,1.1,0.8,2,1.7,2.6s1.9,0.9,3.2,0.9s2.5-0.3,3.6-1 s1.9-1.5,2.4-2.6s0.7-2.7,0.7-4.9V208h4.2v24.9H1460z" class="st12"/><path d="M1470.3,232.9V208h3.8v3.5c1.8-2.7,4.5-4.1,7.9-4.1c1.5,0,2.9,0.3,4.1,0.8s2.2,1.2,2.8,2.1s1.1,1.9,1.3,3.1 c0.2,0.8,0.2,2.1,0.2,4.1v15.3h-4.2v-15.1c0-1.7-0.2-3-0.5-3.9s-0.9-1.5-1.7-2s-1.8-0.8-2.9-0.8c-1.8,0-3.3,0.6-4.7,1.7 s-2,3.3-2,6.5v13.6L1470.3,232.9L1470.3,232.9z" class="st12"/><path d="M1513.2,232.9v-3.1c-1.6,2.5-3.9,3.7-7,3.7c-2,0-3.8-0.5-5.5-1.6s-3-2.6-3.9-4.6s-1.4-4.2-1.4-6.8 c0-2.5,0.4-4.7,1.2-6.8s2.1-3.6,3.7-4.7s3.5-1.6,5.6-1.6c1.5,0,2.8,0.3,4,0.9s2.1,1.5,2.9,2.5v-12.3h4.2v34.4L1513.2,232.9 L1513.2,232.9z M1499.9,220.5c0,3.2,0.7,5.6,2,7.1s2.9,2.4,4.8,2.4c1.8,0,3.4-0.8,4.7-2.3s1.9-3.8,1.9-6.9c0-3.4-0.7-5.9-2-7.5 s-2.9-2.4-4.9-2.4c-1.9,0-3.4,0.8-4.7,2.3S1499.9,217.2,1499.9,220.5z" class="st12"/><path d="M1524.9,232.9v-4.8h4.8v4.8H1524.9z" class="st12"/></g><text class="st13 st8 st10" transform="matrix(1 0 0 1 1198.252 991.875)">May be it is a sign?</text><g class="st11"><path d="M1201.8,991.9v-34.4h6.8l8.1,24.3c0.8,2.3,1.3,4,1.6,5.1c0.4-1.3,1-3.1,1.8-5.5l8.2-23.9h6.1v34.4h-4.4 v-28.8l-10,28.8h-4.1l-9.9-29.3v29.3H1201.8z" class="st12"/><path d="M1257.6,988.8c-1.6,1.3-3.1,2.3-4.5,2.8s-3,0.8-4.7,0.8c-2.7,0-4.8-0.7-6.3-2s-2.2-3-2.2-5.1 c0-1.2,0.3-2.3,0.8-3.3s1.3-1.8,2.2-2.4s1.9-1.1,3-1.4c0.8-0.2,2.1-0.4,3.8-0.6c3.4-0.4,5.9-0.9,7.5-1.5c0-0.6,0-0.9,0-1.1 c0-1.7-0.4-2.9-1.2-3.6c-1.1-1-2.7-1.4-4.8-1.4c-2,0-3.4,0.3-4.4,1s-1.6,1.9-2.1,3.7l-4.1-0.6c0.4-1.8,1-3.2,1.9-4.3 s2.1-1.9,3.7-2.5s3.5-0.9,5.6-0.9c2.1,0,3.9,0.3,5.2,0.8s2.3,1.1,2.9,1.9s1.1,1.7,1.3,2.9c0.1,0.7,0.2,2,0.2,3.9v5.6 c0,3.9,0.1,6.4,0.3,7.4s0.5,2,1.1,3h-4.4C1258,991,1257.8,990,1257.6,988.8z M1257.3,979.4c-1.5,0.6-3.8,1.2-6.9,1.6 c-1.7,0.3-3,0.5-3.7,0.8s-1.3,0.8-1.7,1.4s-0.6,1.3-0.6,2c0,1.1,0.4,2.1,1.3,2.8s2.1,1.1,3.7,1.1c1.6,0,3.1-0.4,4.3-1.1 s2.2-1.7,2.8-2.9c0.5-1,0.7-2.4,0.7-4.2V979.4z" class="st12"/><path d="M1267.9,1001.5l-0.5-4c0.9,0.3,1.7,0.4,2.4,0.4c0.9,0,1.7-0.2,2.3-0.5s1-0.8,1.4-1.3 c0.3-0.4,0.7-1.5,1.3-3.1c0.1-0.2,0.2-0.6,0.4-1l-9.4-24.9h4.5l5.2,14.4c0.7,1.8,1.3,3.8,1.8,5.8c0.5-1.9,1.1-3.8,1.7-5.7 l5.3-14.5h4.2l-9.5,25.3c-1,2.7-1.8,4.6-2.4,5.6c-0.8,1.4-1.6,2.4-2.6,3.1s-2.1,1-3.5,1C1269.8,1002,1268.9,1001.8,1267.9,1001.5z" class="st12"/><path d="M1309.3,991.9h-3.9v-34.4h4.2v12.3c1.8-2.2,4.1-3.4,6.8-3.4c1.5,0,3,0.3,4.3,0.9s2.5,1.5,3.4,2.6 s1.6,2.5,2.1,4s0.8,3.3,0.8,5.1c0,4.3-1.1,7.6-3.2,9.9s-4.6,3.5-7.6,3.5c-2.9,0-5.2-1.2-6.9-3.7V991.9z M1309.3,979.2 c0,3,0.4,5.1,1.2,6.5c1.3,2.2,3.1,3.3,5.4,3.3c1.8,0,3.4-0.8,4.8-2.4s2-4,2-7.2c0-3.3-0.6-5.6-1.9-7.2s-2.8-2.3-4.7-2.3 c-1.8,0-3.4,0.8-4.8,2.4S1309.3,976.2,1309.3,979.2z" class="st12"/><path d="M1349.2,983.9l4.4,0.5c-0.7,2.5-2,4.5-3.8,5.9s-4.2,2.1-7.1,2.1c-3.6,0-6.5-1.1-8.7-3.4s-3.2-5.4-3.2-9.4 c0-4.2,1.1-7.4,3.2-9.8s5-3.5,8.4-3.5c3.3,0,6,1.1,8.2,3.4s3.2,5.5,3.2,9.6c0,0.3,0,0.6,0,1.1h-18.6c0.2,2.7,0.9,4.8,2.3,6.3 s3.1,2.2,5.2,2.2c1.5,0,2.9-0.4,4-1.2S1348.5,985.6,1349.2,983.9z M1335.3,977h13.9c-0.2-2.1-0.7-3.7-1.6-4.7 c-1.3-1.6-3.1-2.4-5.2-2.4c-1.9,0-3.6,0.6-4.9,1.9S1335.5,974.9,1335.3,977z" class="st12"/><path d="M1372.2,962.4v-4.9h4.2v4.9H1372.2z M1372.2,991.9V967h4.2v24.9H1372.2z" class="st12"/><path d="M1392,988.1l0.6,3.7c-1.2,0.3-2.3,0.4-3.2,0.4c-1.5,0-2.7-0.2-3.6-0.7s-1.4-1.1-1.8-1.9s-0.5-2.4-0.5-5 v-14.3h-3.1V967h3.1v-6.2l4.2-2.5v8.7h4.2v3.3h-4.2v14.6c0,1.2,0.1,2,0.2,2.3s0.4,0.6,0.7,0.8s0.8,0.3,1.4,0.3 C1390.7,988.3,1391.3,988.2,1392,988.1z" class="st12"/><path d="M1409.5,962.4v-4.9h4.2v4.9H1409.5z M1409.5,991.9V967h4.2v24.9H1409.5z" class="st12"/><path d="M1418.5,984.4l4.2-0.7c0.2,1.7,0.9,3,2,3.8s2.6,1.3,4.5,1.3c1.9,0,3.4-0.4,4.3-1.2s1.4-1.7,1.4-2.8 c0-1-0.4-1.7-1.2-2.3c-0.6-0.4-2-0.9-4.3-1.4c-3.1-0.8-5.2-1.5-6.4-2s-2.1-1.4-2.7-2.4s-0.9-2.1-0.9-3.3c0-1.1,0.3-2.1,0.8-3.1 s1.2-1.7,2.1-2.4c0.7-0.5,1.6-0.9,2.7-1.2s2.3-0.5,3.6-0.5c2,0,3.7,0.3,5.1,0.8s2.6,1.3,3.3,2.3s1.2,2.2,1.5,3.9l-4.1,0.6 c-0.2-1.3-0.7-2.3-1.6-3s-2.2-1.1-3.8-1.1c-1.9,0-3.3,0.3-4.1,1s-1.2,1.4-1.2,2.3c0,0.5,0.2,1,0.5,1.5c0.3,0.5,0.9,0.8,1.6,1.1 c0.4,0.2,1.7,0.5,3.7,1.1c3,0.8,5.1,1.4,6.2,2s2.1,1.2,2.8,2.2s1,2.2,1,3.6c0,1.4-0.4,2.7-1.2,4s-2,2.2-3.6,2.9s-3.3,1-5.3,1 c-3.2,0-5.7-0.7-7.4-2S1418.9,987.1,1418.5,984.4z" class="st12"/><path d="M1473.7,988.8c-1.6,1.3-3.1,2.3-4.5,2.8s-3,0.8-4.7,0.8c-2.7,0-4.8-0.7-6.3-2s-2.2-3-2.2-5.1 c0-1.2,0.3-2.3,0.8-3.3s1.3-1.8,2.2-2.4s1.9-1.1,3-1.4c0.8-0.2,2.1-0.4,3.8-0.6c3.4-0.4,5.9-0.9,7.5-1.5c0-0.6,0-0.9,0-1.1 c0-1.7-0.4-2.9-1.2-3.6c-1.1-1-2.7-1.4-4.8-1.4c-2,0-3.4,0.3-4.4,1s-1.6,1.9-2.1,3.7l-4.1-0.6c0.4-1.8,1-3.2,1.9-4.3 s2.1-1.9,3.7-2.5s3.5-0.9,5.6-0.9c2.1,0,3.9,0.3,5.2,0.8s2.3,1.1,2.9,1.9s1.1,1.7,1.3,2.9c0.1,0.7,0.2,2,0.2,3.9v5.6 c0,3.9,0.1,6.4,0.3,7.4s0.5,2,1.1,3h-4.4C1474.1,991,1473.9,990,1473.7,988.8z M1473.4,979.4c-1.5,0.6-3.8,1.2-6.9,1.6 c-1.7,0.3-3,0.5-3.7,0.8s-1.3,0.8-1.7,1.4s-0.6,1.3-0.6,2c0,1.1,0.4,2.1,1.3,2.8s2.1,1.1,3.7,1.1c1.6,0,3.1-0.4,4.3-1.1 s2.2-1.7,2.8-2.9c0.5-1,0.7-2.4,0.7-4.2V979.4z" class="st12"/><path d="M1495.8,984.4l4.2-0.7c0.2,1.7,0.9,3,2,3.8s2.6,1.3,4.5,1.3c1.9,0,3.4-0.4,4.3-1.2s1.4-1.7,1.4-2.8 c0-1-0.4-1.7-1.2-2.3c-0.6-0.4-2-0.9-4.3-1.4c-3.1-0.8-5.2-1.5-6.4-2s-2.1-1.4-2.7-2.4s-0.9-2.1-0.9-3.3c0-1.1,0.3-2.1,0.8-3.1 s1.2-1.7,2.1-2.4c0.7-0.5,1.6-0.9,2.7-1.2s2.3-0.5,3.6-0.5c2,0,3.7,0.3,5.1,0.8s2.6,1.3,3.3,2.3s1.2,2.2,1.5,3.9l-4.1,0.6 c-0.2-1.3-0.7-2.3-1.6-3s-2.2-1.1-3.8-1.1c-1.9,0-3.3,0.3-4.1,1s-1.2,1.4-1.2,2.3c0,0.5,0.2,1,0.5,1.5c0.3,0.5,0.9,0.8,1.6,1.1 c0.4,0.2,1.7,0.5,3.7,1.1c3,0.8,5.1,1.4,6.2,2s2.1,1.2,2.8,2.2s1,2.2,1,3.6c0,1.4-0.4,2.7-1.2,4s-2,2.2-3.6,2.9s-3.3,1-5.3,1 c-3.2,0-5.7-0.7-7.4-2S1496.3,987.1,1495.8,984.4z" class="st12"/><path d="M1521.5,962.4v-4.9h4.2v4.9H1521.5z M1521.5,991.9V967h4.2v24.9H1521.5z" class="st12"/><path d="M1531.4,993.9l4.1,0.6c0.2,1.3,0.6,2.2,1.4,2.8c1,0.8,2.5,1.2,4.3,1.2c2,0,3.5-0.4,4.5-1.2s1.8-1.9,2.2-3.3 c0.2-0.9,0.3-2.7,0.3-5.4c-1.8,2.2-4.1,3.3-6.9,3.3c-3.4,0-6.1-1.2-7.9-3.7s-2.8-5.4-2.8-8.9c0-2.4,0.4-4.6,1.3-6.6 s2.1-3.6,3.7-4.7s3.6-1.6,5.8-1.6c2.9,0,5.4,1.2,7.3,3.6v-3h3.9v21.5c0,3.9-0.4,6.6-1.2,8.2s-2,2.9-3.8,3.8s-3.8,1.4-6.3,1.4 c-3,0-5.4-0.7-7.2-2S1531.4,996.6,1531.4,993.9z M1534.9,979c0,3.3,0.6,5.6,1.9,7.1s2.9,2.3,4.9,2.3c1.9,0,3.6-0.7,4.9-2.2 s2-3.8,2-7c0-3-0.7-5.3-2-6.9s-3-2.3-4.9-2.3c-1.9,0-3.5,0.8-4.8,2.3S1534.9,976,1534.9,979z" class="st12"/><path d="M1558.9,991.9V967h3.8v3.5c1.8-2.7,4.5-4.1,7.9-4.1c1.5,0,2.9,0.3,4.1,0.8s2.2,1.2,2.8,2.1s1.1,1.9,1.3,3.1 c0.2,0.8,0.2,2.1,0.2,4.1v15.3h-4.2v-15.1c0-1.7-0.2-3-0.5-3.9s-0.9-1.5-1.7-2s-1.8-0.8-2.9-0.8c-1.8,0-3.3,0.6-4.7,1.7 s-2,3.3-2,6.5v13.6H1558.9z" class="st12"/><path d="M1593.5,983.4c0-0.6,0-1,0-1.3c0-1.7,0.2-3.1,0.7-4.3c0.3-0.9,0.9-1.8,1.7-2.7c0.6-0.7,1.6-1.7,3-2.9 s2.4-2.3,2.8-3.1s0.7-1.6,0.7-2.5c0-1.6-0.6-3.1-1.9-4.3s-2.9-1.9-4.7-1.9c-1.8,0-3.3,0.6-4.5,1.7s-2,2.9-2.4,5.3l-4.3-0.5 c0.4-3.2,1.6-5.7,3.5-7.4s4.5-2.6,7.7-2.6c3.4,0,6,0.9,8,2.7s3,4,3,6.6c0,1.5-0.4,2.9-1.1,4.1s-2.1,2.8-4.1,4.6 c-1.4,1.2-2.3,2.1-2.7,2.7s-0.7,1.2-0.9,2s-0.3,2-0.4,3.7H1593.5z M1593.2,991.9v-4.8h4.8v4.8H1593.2z" class="st12"/></g><circle cx="1125" cy="973" r="31.5" class="st14"/></g></svg>