<?xml version="1.0" encoding="utf-8"?>
<!-- Generator: Adobe Illustrator 23.0.1, SVG Export Plug-In . SVG Version: 6.00 Build 0)  -->
<svg version="1.1" id="Layer_1" xmlns="http://www.w3.org/2000/svg" xmlns:xlink="http://www.w3.org/1999/xlink" x="0px" y="0px"
	 viewBox="0 0 1920 1080" style="enable-background:new 0 0 1920 1080;" xml:space="preserve">
<style type="text/css">
	.st0{fill:#232328;}
	.st1{fill:#0353B3;}
	.st2{display:none;}
	.st3{display:inline;fill:none;stroke:#191919;stroke-width:0.75;stroke-miterlimit:10;}
	.st4{fill:#1E1E1E;}
	.st5{display:inline;fill:none;stroke:#0353B3;stroke-width:5;stroke-miterlimit:10;}
	.st6{display:inline;fill:none;stroke:#1E1E1E;stroke-width:2;stroke-miterlimit:10;}
	.st7{display:inline;fill:#D1D1D1;}
	.st8{font-family:'ArialMT';}
	.st9{font-size:100px;}
	.st10{font-size:48px;}
	.st11{enable-background:new    ;}
	.st12{fill:#D1D1D1;}
	.st13{display:none;fill:#D1D1D1;enable-background:new    ;}
	.st14{fill:none;stroke:#AD0404;stroke-width:5;stroke-miterlimit:10;}
</style>
<g id="BG">
	<g>
		<rect class="st0" width="1920" height="1080"/>
	</g>
</g>
<g id="Graph">
	<g>
		<polygon class="st1" points="1920,568.8 1920,574.4 1767.9,650.5 1766.9,650.1 1550.2,572 1336.8,691.3 1124.2,981.7 897.9,487.5 
			688.9,744.1 688.1,744.3 471.5,798.9 470.5,797.9 251.4,571.1 47,870 45,872.9 45,864.1 47,861.1 250.7,563.3 253.3,566 
			473.1,793.4 686.1,739.6 899.1,478.1 1125.2,971.9 1333.4,687.5 1333.9,687.2 1549.7,566.5 1767.6,645 		"/>
	</g>
	<g class="st2">
		<line class="st3" x1="219.5" y1="458.5" x2="219.5" y2="1079.5"/>
		<line class="st3" x1="436.5" y1="459" x2="436.5" y2="1080"/>
		<line class="st3" x1="655.5" y1="459" x2="655.5" y2="1080"/>
		<line class="st3" x1="1098.5" y1="459" x2="1098.5" y2="1080"/>
		<line class="st3" x1="879.5" y1="459" x2="879.5" y2="1080"/>
		<line class="st3" x1="1318.5" y1="459" x2="1318.5" y2="1080"/>
		<line class="st3" x1="1539.5" y1="459" x2="1539.5" y2="1080"/>
		<line class="st3" x1="1760.5" y1="459" x2="1760.5" y2="1080"/>
		<line class="st3" x1="0.5" y1="941.5" x2="1919.5" y2="941.5"/>
		<line class="st3" x1="1" y1="863.5" x2="1920" y2="863.5"/>
		<line class="st3" x1="1.5" y1="785.5" x2="1920.5" y2="785.5"/>
		<line class="st3" x1="2" y1="707.5" x2="1921" y2="707.5"/>
		<line class="st3" x1="2.5" y1="629.5" x2="1921.5" y2="629.5"/>
		<line class="st3" x1="3" y1="551.5" x2="1922" y2="551.5"/>
		<line class="st3" x1="3.5" y1="473.5" x2="1922.5" y2="473.5"/>
	</g>
	<g>
		<rect x="45" y="435" class="st4" width="2" height="645"/>
	</g>
	<g>
		<rect x="0.5" y="1032.5" class="st4" width="1919" height="2"/>
	</g>
	<g class="st2">
		<polyline class="st5" points="1923.4,569.9 1767.8,647.7 1549.9,569.3 1335.1,689.4 1124.7,976.8 898.5,482.8 687.5,741.8 
			472.3,796.1 251.5,567.7 251,567.2 42.4,872.3 		"/>
		<line class="st6" x1="46" y1="435" x2="46" y2="1080"/>
		<line class="st6" x1="0.5" y1="1033.5" x2="1919.5" y2="1033.5"/>
	</g>
</g>
<g id="Layer_3">
	<g class="st2">
		<text transform="matrix(1 0 0 1 871.5525 172.875)" class="st7 st8 st9">500!</text>
		<text transform="matrix(1 0 0 1 359.2173 232.875)" class="st7 st8 st10">Sorry. The server is experiencing some load. Please try again.</text>
	</g>
	<g class="st11">
		<path class="st12" d="M875.7,154.1l9.2-0.8c0.7,4.5,2.3,7.9,4.8,10.1c2.5,2.3,5.5,3.4,9,3.4c4.2,0,7.8-1.6,10.7-4.8
			s4.4-7.4,4.4-12.7c0-5-1.4-9-4.2-11.9s-6.5-4.3-11.1-4.3c-2.8,0-5.4,0.6-7.7,1.9c-2.3,1.3-4.1,3-5.4,5l-8.3-1.1l6.9-36.8h35.6v8.4
			H891l-3.9,19.2c4.3-3,8.8-4.5,13.5-4.5c6.3,0,11.5,2.2,15.8,6.5s6.4,9.9,6.4,16.7c0,6.5-1.9,12.1-5.7,16.8
			c-4.6,5.8-10.9,8.7-18.8,8.7c-6.5,0-11.8-1.8-15.9-5.5C878.6,165,876.3,160.1,875.7,154.1z"/>
		<path class="st12" d="M931.3,137.6c0-8.5,0.9-15.3,2.6-20.4c1.7-5.2,4.3-9.1,7.8-11.9c3.4-2.8,7.8-4.2,13-4.2
			c3.8,0,7.2,0.8,10.1,2.3c2.9,1.5,5.3,3.8,7.2,6.7c1.9,2.9,3.4,6.5,4.4,10.6c1.1,4.2,1.6,9.8,1.6,16.9c0,8.4-0.9,15.2-2.6,20.3
			c-1.7,5.2-4.3,9.1-7.7,12c-3.4,2.8-7.8,4.2-13,4.2c-6.9,0-12.3-2.5-16.3-7.4C933.7,160.7,931.3,151,931.3,137.6z M940.4,137.6
			c0,11.8,1.4,19.6,4.1,23.5c2.8,3.9,6.1,5.8,10.2,5.8c4,0,7.4-2,10.2-5.9s4.1-11.7,4.1-23.4c0-11.8-1.4-19.6-4.1-23.5
			c-2.8-3.9-6.2-5.8-10.3-5.8c-4,0-7.3,1.7-9.7,5.1C941.9,117.8,940.4,125.8,940.4,137.6z"/>
		<path class="st12" d="M986.9,137.6c0-8.5,0.9-15.3,2.6-20.4c1.7-5.2,4.3-9.1,7.8-11.9c3.4-2.8,7.8-4.2,13-4.2
			c3.8,0,7.2,0.8,10.1,2.3c2.9,1.5,5.3,3.8,7.2,6.7c1.9,2.9,3.4,6.5,4.4,10.6c1.1,4.2,1.6,9.8,1.6,16.9c0,8.4-0.9,15.2-2.6,20.3
			c-1.7,5.2-4.3,9.1-7.7,12c-3.4,2.8-7.8,4.2-13,4.2c-6.9,0-12.3-2.5-16.3-7.4C989.3,160.7,986.9,151,986.9,137.6z M996,137.6
			c0,11.8,1.4,19.6,4.1,23.5c2.8,3.9,6.1,5.8,10.2,5.8c4,0,7.4-2,10.2-5.9s4.1-11.7,4.1-23.4c0-11.8-1.4-19.6-4.1-23.5
			c-2.8-3.9-6.2-5.8-10.3-5.8c-4,0-7.3,1.7-9.7,5.1C997.5,117.8,996,125.8,996,137.6z"/>
		<path class="st12" d="M1049.7,155.1l-2.7-37.9v-15.9h10.9v15.9l-2.5,37.9H1049.7z M1047.4,172.9v-10h10.1v10H1047.4z"/>
	</g>
	<g class="st11">
		<path class="st12" d="M361.4,221.8l4.3-0.4c0.2,1.7,0.7,3.1,1.4,4.2s1.9,2,3.5,2.7s3.3,1,5.3,1c1.7,0,3.3-0.3,4.6-0.8
			s2.3-1.2,3-2.1s1-1.9,1-2.9c0-1.1-0.3-2-0.9-2.8s-1.7-1.5-3.1-2c-0.9-0.4-3-0.9-6.1-1.7s-5.4-1.5-6.6-2.1
			c-1.6-0.9-2.9-1.9-3.7-3.2s-1.2-2.7-1.2-4.3c0-1.7,0.5-3.4,1.5-4.9s2.4-2.7,4.3-3.4s4-1.2,6.3-1.2c2.5,0,4.8,0.4,6.7,1.2
			s3.4,2,4.5,3.6s1.6,3.4,1.7,5.4l-4.4,0.3c-0.2-2.2-1-3.8-2.4-4.9s-3.3-1.7-6-1.7c-2.8,0-4.8,0.5-6,1.5s-1.9,2.2-1.9,3.6
			c0,1.2,0.4,2.3,1.3,3c0.9,0.8,3.2,1.6,6.9,2.4s6.2,1.6,7.6,2.2c2,0.9,3.5,2.1,4.4,3.5s1.4,3,1.4,4.9c0,1.8-0.5,3.6-1.6,5.2
			s-2.6,2.9-4.5,3.8s-4.2,1.3-6.6,1.3c-3.1,0-5.7-0.5-7.8-1.4s-3.8-2.3-4.9-4.1S361.4,224.1,361.4,221.8z"/>
		<path class="st12" d="M392.8,220.4c0-4.6,1.3-8,3.8-10.2c2.1-1.8,4.8-2.8,7.8-2.8c3.4,0,6.2,1.1,8.4,3.4s3.3,5.3,3.3,9.3
			c0,3.2-0.5,5.7-1.4,7.6s-2.4,3.3-4.2,4.3s-3.8,1.5-6,1.5c-3.5,0-6.3-1.1-8.4-3.4S392.8,224.6,392.8,220.4z M397.2,220.4
			c0,3.2,0.7,5.6,2.1,7.2s3.1,2.4,5.3,2.4c2.1,0,3.8-0.8,5.2-2.4s2.1-4,2.1-7.3c0-3.1-0.7-5.4-2.1-7s-3.1-2.4-5.2-2.4
			s-3.9,0.8-5.3,2.4S397.2,217.2,397.2,220.4z"/>
		<path class="st12" d="M421,232.9V208h3.8v3.8c1-1.8,1.9-2.9,2.7-3.5s1.7-0.8,2.7-0.8c1.4,0,2.9,0.5,4.3,1.4l-1.5,3.9
			c-1-0.6-2.1-0.9-3.1-0.9c-0.9,0-1.8,0.3-2.5,0.8s-1.3,1.3-1.6,2.3c-0.5,1.5-0.7,3.1-0.7,4.9v13H421z"/>
		<path class="st12" d="M437,232.9V208h3.8v3.8c1-1.8,1.9-2.9,2.7-3.5s1.7-0.8,2.7-0.8c1.4,0,2.9,0.5,4.3,1.4l-1.5,3.9
			c-1-0.6-2.1-0.9-3.1-0.9c-0.9,0-1.8,0.3-2.5,0.8s-1.3,1.3-1.6,2.3c-0.5,1.5-0.7,3.1-0.7,4.9v13H437z"/>
		<path class="st12" d="M452.9,242.5l-0.5-4c0.9,0.3,1.7,0.4,2.4,0.4c0.9,0,1.7-0.2,2.3-0.5s1-0.8,1.4-1.3c0.3-0.4,0.7-1.5,1.3-3.1
			c0.1-0.2,0.2-0.6,0.4-1l-9.4-24.9h4.5l5.2,14.4c0.7,1.8,1.3,3.8,1.8,5.8c0.5-1.9,1.1-3.8,1.7-5.7l5.3-14.5h4.2l-9.5,25.3
			c-1,2.7-1.8,4.6-2.4,5.6c-0.8,1.4-1.6,2.4-2.6,3.1s-2.1,1-3.5,1C454.8,243,453.9,242.8,452.9,242.5z"/>
		<path class="st12" d="M474.7,232.9v-4.8h4.8v4.8H474.7z"/>
		<path class="st12" d="M508.6,232.9v-30.3h-11.3v-4.1h27.2v4.1h-11.4v30.3H508.6z"/>
		<path class="st12" d="M528.6,232.9v-34.4h4.2v12.3c2-2.3,4.5-3.4,7.5-3.4c1.8,0,3.4,0.4,4.8,1.1s2.3,1.7,2.9,3s0.9,3.1,0.9,5.6
			v15.8h-4.2v-15.8c0-2.1-0.5-3.6-1.4-4.6s-2.2-1.4-3.9-1.4c-1.3,0-2.4,0.3-3.5,1s-1.9,1.5-2.4,2.6s-0.7,2.6-0.7,4.6v13.6
			L528.6,232.9L528.6,232.9z"/>
		<path class="st12" d="M572.4,224.9l4.4,0.5c-0.7,2.5-2,4.5-3.8,5.9s-4.2,2.1-7.1,2.1c-3.6,0-6.5-1.1-8.7-3.4s-3.2-5.4-3.2-9.4
			c0-4.2,1.1-7.4,3.2-9.8s5-3.5,8.4-3.5c3.3,0,6,1.1,8.2,3.4s3.2,5.5,3.2,9.6c0,0.3,0,0.6,0,1.1h-18.6c0.2,2.7,0.9,4.8,2.3,6.3
			s3.1,2.2,5.2,2.2c1.5,0,2.9-0.4,4-1.2S571.7,226.6,572.4,224.9z M558.5,218h13.9c-0.2-2.1-0.7-3.7-1.6-4.7
			c-1.3-1.6-3.1-2.4-5.2-2.4c-1.9,0-3.6,0.6-4.9,1.9S558.6,215.9,558.5,218z"/>
		<path class="st12" d="M593.7,225.4l4.2-0.7c0.2,1.7,0.9,3,2,3.8s2.6,1.3,4.5,1.3s3.4-0.4,4.3-1.2s1.4-1.7,1.4-2.8
			c0-1-0.4-1.7-1.2-2.3c-0.6-0.4-2-0.9-4.3-1.4c-3.1-0.8-5.2-1.5-6.4-2s-2.1-1.4-2.7-2.4s-0.9-2.1-0.9-3.3c0-1.1,0.3-2.1,0.8-3.1
			s1.2-1.7,2.1-2.4c0.7-0.5,1.6-0.9,2.7-1.2s2.3-0.5,3.6-0.5c2,0,3.7,0.3,5.1,0.8s2.6,1.3,3.3,2.3s1.2,2.2,1.5,3.9l-4.1,0.6
			c-0.2-1.3-0.7-2.3-1.6-3s-2.2-1.1-3.8-1.1c-1.9,0-3.3,0.3-4.1,1s-1.2,1.4-1.2,2.3c0,0.5,0.2,1,0.5,1.5s0.9,0.8,1.6,1.1
			c0.4,0.2,1.7,0.5,3.7,1.1c3,0.8,5.1,1.4,6.2,2s2.1,1.2,2.8,2.2s1,2.2,1,3.6c0,1.4-0.4,2.7-1.2,4s-2,2.2-3.6,2.9s-3.3,1-5.3,1
			c-3.2,0-5.7-0.7-7.4-2S594.1,228.1,593.7,225.4z"/>
		<path class="st12" d="M636.4,224.9l4.4,0.5c-0.7,2.5-2,4.5-3.8,5.9s-4.2,2.1-7.1,2.1c-3.6,0-6.5-1.1-8.7-3.4s-3.2-5.4-3.2-9.4
			c0-4.2,1.1-7.4,3.2-9.8s5-3.5,8.4-3.5c3.3,0,6,1.1,8.2,3.4s3.2,5.5,3.2,9.6c0,0.3,0,0.6,0,1.1h-18.6c0.2,2.7,0.9,4.8,2.3,6.3
			s3.1,2.2,5.2,2.2c1.5,0,2.9-0.4,4-1.2S635.7,226.6,636.4,224.9z M622.5,218h13.9c-0.2-2.1-0.7-3.7-1.6-4.7
			c-1.3-1.6-3.1-2.4-5.2-2.4c-1.9,0-3.6,0.6-4.9,1.9S622.7,215.9,622.5,218z"/>
		<path class="st12" d="M646,232.9V208h3.8v3.8c1-1.8,1.9-2.9,2.7-3.5s1.7-0.8,2.7-0.8c1.4,0,2.9,0.5,4.3,1.4l-1.5,3.9
			c-1-0.6-2.1-0.9-3.1-0.9c-0.9,0-1.8,0.3-2.5,0.8s-1.3,1.3-1.6,2.3c-0.5,1.5-0.7,3.1-0.7,4.9v13H646z"/>
		<path class="st12" d="M668.9,232.9l-9.5-24.9h4.5l5.3,14.9c0.6,1.6,1.1,3.3,1.6,5c0.4-1.3,0.9-2.9,1.6-4.7L678,208h4.3l-9.4,24.9
			H668.9z"/>
		<path class="st12" d="M703.1,224.9l4.4,0.5c-0.7,2.5-2,4.5-3.8,5.9s-4.2,2.1-7.1,2.1c-3.6,0-6.5-1.1-8.7-3.4s-3.2-5.4-3.2-9.4
			c0-4.2,1.1-7.4,3.2-9.8s5-3.5,8.4-3.5c3.3,0,6,1.1,8.2,3.4s3.2,5.5,3.2,9.6c0,0.3,0,0.6,0,1.1H689c0.2,2.7,0.9,4.8,2.3,6.3
			s3.1,2.2,5.2,2.2c1.5,0,2.9-0.4,4-1.2S702.4,226.6,703.1,224.9z M689.2,218h13.9c-0.2-2.1-0.7-3.7-1.6-4.7
			c-1.3-1.6-3.1-2.4-5.2-2.4c-1.9,0-3.6,0.6-4.9,1.9S689.4,215.9,689.2,218z"/>
		<path class="st12" d="M712.7,232.9V208h3.8v3.8c1-1.8,1.9-2.9,2.7-3.5s1.7-0.8,2.7-0.8c1.4,0,2.9,0.5,4.3,1.4l-1.5,3.9
			c-1-0.6-2.1-0.9-3.1-0.9c-0.9,0-1.8,0.3-2.5,0.8s-1.3,1.3-1.6,2.3c-0.5,1.5-0.7,3.1-0.7,4.9v13H712.7z"/>
		<path class="st12" d="M742.1,203.4v-4.9h4.2v4.9H742.1z M742.1,232.9V208h4.2v24.9H742.1z"/>
		<path class="st12" d="M751,225.4l4.2-0.7c0.2,1.7,0.9,3,2,3.8s2.6,1.3,4.5,1.3s3.4-0.4,4.3-1.2s1.4-1.7,1.4-2.8
			c0-1-0.4-1.7-1.2-2.3c-0.6-0.4-2-0.9-4.3-1.4c-3.1-0.8-5.2-1.5-6.4-2s-2.1-1.4-2.7-2.4s-0.9-2.1-0.9-3.3c0-1.1,0.3-2.1,0.8-3.1
			s1.2-1.7,2.1-2.4c0.7-0.5,1.6-0.9,2.7-1.2s2.3-0.5,3.6-0.5c2,0,3.7,0.3,5.1,0.8s2.6,1.3,3.3,2.3s1.2,2.2,1.5,3.9l-4.1,0.6
			c-0.2-1.3-0.7-2.3-1.6-3s-2.2-1.1-3.8-1.1c-1.9,0-3.3,0.3-4.1,1s-1.2,1.4-1.2,2.3c0,0.5,0.2,1,0.5,1.5s0.9,0.8,1.6,1.1
			c0.4,0.2,1.7,0.5,3.7,1.1c3,0.8,5.1,1.4,6.2,2s2.1,1.2,2.8,2.2s1,2.2,1,3.6c0,1.4-0.4,2.7-1.2,4s-2,2.2-3.6,2.9s-3.3,1-5.3,1
			c-3.2,0-5.7-0.7-7.4-2S751.5,228.1,751,225.4z"/>
		<path class="st12" d="M807.1,224.9l4.4,0.5c-0.7,2.5-2,4.5-3.8,5.9s-4.2,2.1-7.1,2.1c-3.6,0-6.5-1.1-8.7-3.4s-3.2-5.4-3.2-9.4
			c0-4.2,1.1-7.4,3.2-9.8s5-3.5,8.4-3.5c3.3,0,6,1.1,8.2,3.4s3.2,5.5,3.2,9.6c0,0.3,0,0.6,0,1.1H793c0.2,2.7,0.9,4.8,2.3,6.3
			s3.1,2.2,5.2,2.2c1.5,0,2.9-0.4,4-1.2S806.4,226.6,807.1,224.9z M793.2,218h13.9c-0.2-2.1-0.7-3.7-1.6-4.7
			c-1.3-1.6-3.1-2.4-5.2-2.4c-1.9,0-3.6,0.6-4.9,1.9S793.4,215.9,793.2,218z"/>
		<path class="st12" d="M813.9,232.9L823,220l-8.4-12h5.3l3.8,5.8c0.7,1.1,1.3,2,1.7,2.8c0.7-1,1.3-1.9,1.9-2.7l4.2-5.9h5l-8.6,11.7
			l9.3,13.2H832l-5.1-7.7l-1.4-2.1l-6.5,9.8L813.9,232.9L813.9,232.9z"/>
		<path class="st12" d="M840.7,242.4V208h3.8v3.2c0.9-1.3,1.9-2.2,3.1-2.8s2.5-0.9,4.1-0.9c2.1,0,4,0.5,5.6,1.6s2.9,2.6,3.7,4.6
			s1.2,4.2,1.2,6.6c0,2.5-0.5,4.8-1.4,6.9s-2.2,3.6-4,4.7s-3.6,1.6-5.5,1.6c-1.4,0-2.7-0.3-3.8-0.9s-2-1.3-2.8-2.3v12.1L840.7,242.4
			L840.7,242.4z M844.6,220.6c0,3.2,0.6,5.6,1.9,7.1s2.9,2.3,4.7,2.3c1.9,0,3.5-0.8,4.8-2.4s2-4,2-7.4c0-3.2-0.7-5.5-2-7.1
			s-2.9-2.4-4.7-2.4s-3.4,0.8-4.8,2.5S844.6,217.4,844.6,220.6z"/>
		<path class="st12" d="M884.5,224.9l4.4,0.5c-0.7,2.5-2,4.5-3.8,5.9s-4.2,2.1-7.1,2.1c-3.6,0-6.5-1.1-8.7-3.4s-3.2-5.4-3.2-9.4
			c0-4.2,1.1-7.4,3.2-9.8s5-3.5,8.4-3.5c3.3,0,6,1.1,8.2,3.4s3.2,5.5,3.2,9.6c0,0.3,0,0.6,0,1.1h-18.6c0.2,2.7,0.9,4.8,2.3,6.3
			s3.1,2.2,5.2,2.2c1.5,0,2.9-0.4,4-1.2S883.8,226.6,884.5,224.9z M870.6,218h13.9c-0.2-2.1-0.7-3.7-1.6-4.7
			c-1.3-1.6-3.1-2.4-5.2-2.4c-1.9,0-3.6,0.6-4.9,1.9S870.8,215.9,870.6,218z"/>
		<path class="st12" d="M894.1,232.9V208h3.8v3.8c1-1.8,1.9-2.9,2.7-3.5s1.7-0.8,2.7-0.8c1.4,0,2.9,0.5,4.3,1.4l-1.5,3.9
			c-1-0.6-2.1-0.9-3.1-0.9c-0.9,0-1.8,0.3-2.5,0.8s-1.3,1.3-1.6,2.3c-0.5,1.5-0.7,3.1-0.7,4.9v13H894.1z"/>
		<path class="st12" d="M910.1,203.4v-4.9h4.2v4.9H910.1z M910.1,232.9V208h4.2v24.9H910.1z"/>
		<path class="st12" d="M937.8,224.9l4.4,0.5c-0.7,2.5-2,4.5-3.8,5.9s-4.2,2.1-7.1,2.1c-3.6,0-6.5-1.1-8.7-3.4s-3.2-5.4-3.2-9.4
			c0-4.2,1.1-7.4,3.2-9.8s5-3.5,8.4-3.5c3.3,0,6,1.1,8.2,3.4s3.2,5.5,3.2,9.6c0,0.3,0,0.6,0,1.1h-18.6c0.2,2.7,0.9,4.8,2.3,6.3
			s3.1,2.2,5.2,2.2c1.5,0,2.9-0.4,4-1.2S937.2,226.6,937.8,224.9z M924,218h13.9c-0.2-2.1-0.7-3.7-1.6-4.7c-1.3-1.6-3.1-2.4-5.2-2.4
			c-1.9,0-3.6,0.6-4.9,1.9S924.1,215.9,924,218z"/>
		<path class="st12" d="M947.5,232.9V208h3.8v3.5c1.8-2.7,4.5-4.1,7.9-4.1c1.5,0,2.9,0.3,4.1,0.8s2.2,1.2,2.8,2.1s1.1,1.9,1.3,3.1
			c0.2,0.8,0.2,2.1,0.2,4.1v15.3h-4.2v-15.1c0-1.7-0.2-3-0.5-3.9s-0.9-1.5-1.7-2s-1.8-0.8-2.9-0.8c-1.8,0-3.3,0.6-4.7,1.7
			s-2,3.3-2,6.5v13.6L947.5,232.9L947.5,232.9z"/>
		<path class="st12" d="M990.4,223.8l4.1,0.5c-0.5,2.9-1.6,5.1-3.5,6.7s-4.2,2.4-6.9,2.4c-3.4,0-6.1-1.1-8.2-3.3s-3.1-5.4-3.1-9.6
			c0-2.7,0.4-5,1.3-7.1s2.2-3.5,4.1-4.5s3.8-1.5,5.9-1.5c2.7,0,4.9,0.7,6.6,2.1s2.8,3.3,3.3,5.8l-4.1,0.6c-0.4-1.7-1.1-2.9-2.1-3.8
			s-2.2-1.3-3.6-1.3c-2.1,0-3.9,0.8-5.2,2.3s-2,3.9-2,7.2s0.6,5.8,1.9,7.3s3,2.3,5,2.3c1.7,0,3-0.5,4.1-1.5S990.1,225.9,990.4,223.8
			z"/>
		<path class="st12" d="M998.2,203.4v-4.9h4.2v4.9H998.2z M998.2,232.9V208h4.2v24.9H998.2z"/>
		<path class="st12" d="M1008.8,232.9V208h3.8v3.5c1.8-2.7,4.5-4.1,7.9-4.1c1.5,0,2.9,0.3,4.1,0.8s2.2,1.2,2.8,2.1s1.1,1.9,1.3,3.1
			c0.2,0.8,0.2,2.1,0.2,4.1v15.3h-4.2v-15.1c0-1.7-0.2-3-0.5-3.9s-0.9-1.5-1.7-2s-1.8-0.8-2.9-0.8c-1.8,0-3.3,0.6-4.7,1.7
			s-2,3.3-2,6.5v13.6L1008.8,232.9L1008.8,232.9z"/>
		<path class="st12" d="M1034.8,234.9l4.1,0.6c0.2,1.3,0.6,2.2,1.4,2.8c1,0.8,2.5,1.2,4.3,1.2c2,0,3.5-0.4,4.5-1.2s1.8-1.9,2.2-3.3
			c0.2-0.9,0.3-2.7,0.3-5.4c-1.8,2.2-4.1,3.3-6.9,3.3c-3.4,0-6.1-1.2-7.9-3.7s-2.8-5.4-2.8-8.9c0-2.4,0.4-4.6,1.3-6.6
			s2.1-3.6,3.7-4.7s3.6-1.6,5.8-1.6c2.9,0,5.4,1.2,7.3,3.6v-3h3.9v21.5c0,3.9-0.4,6.6-1.2,8.2s-2,2.9-3.8,3.8s-3.8,1.4-6.3,1.4
			c-3,0-5.4-0.7-7.2-2S1034.7,237.6,1034.8,234.9z M1038.2,220c0,3.3,0.6,5.6,1.9,7.1s2.9,2.3,4.9,2.3c1.9,0,3.6-0.7,4.9-2.2
			s2-3.8,2-7c0-3-0.7-5.3-2-6.9s-3-2.3-4.9-2.3s-3.5,0.8-4.8,2.3S1038.2,217,1038.2,220z"/>
		<path class="st12" d="M1073.9,225.4l4.2-0.7c0.2,1.7,0.9,3,2,3.8s2.6,1.3,4.5,1.3s3.4-0.4,4.3-1.2s1.4-1.7,1.4-2.8
			c0-1-0.4-1.7-1.2-2.3c-0.6-0.4-2-0.9-4.3-1.4c-3.1-0.8-5.2-1.5-6.4-2s-2.1-1.4-2.7-2.4s-0.9-2.1-0.9-3.3c0-1.1,0.3-2.1,0.8-3.1
			s1.2-1.7,2.1-2.4c0.7-0.5,1.6-0.9,2.7-1.2s2.3-0.5,3.6-0.5c2,0,3.7,0.3,5.1,0.8s2.6,1.3,3.3,2.3s1.2,2.2,1.5,3.9l-4.1,0.6
			c-0.2-1.3-0.7-2.3-1.6-3s-2.2-1.1-3.8-1.1c-1.9,0-3.3,0.3-4.1,1s-1.2,1.4-1.2,2.3c0,0.5,0.2,1,0.5,1.5s0.9,0.8,1.6,1.1
			c0.4,0.2,1.7,0.5,3.7,1.1c3,0.8,5.1,1.4,6.2,2s2.1,1.2,2.8,2.2s1,2.2,1,3.6c0,1.4-0.4,2.7-1.2,4s-2,2.2-3.6,2.9s-3.3,1-5.3,1
			c-3.2,0-5.7-0.7-7.4-2S1074.3,228.1,1073.9,225.4z"/>
		<path class="st12" d="M1098,220.4c0-4.6,1.3-8,3.8-10.2c2.1-1.8,4.8-2.8,7.8-2.8c3.4,0,6.2,1.1,8.4,3.4s3.3,5.3,3.3,9.3
			c0,3.2-0.5,5.7-1.4,7.6s-2.4,3.3-4.2,4.3s-3.8,1.5-6,1.5c-3.5,0-6.3-1.1-8.4-3.4S1098,224.6,1098,220.4z M1102.3,220.4
			c0,3.2,0.7,5.6,2.1,7.2s3.1,2.4,5.3,2.4c2.1,0,3.8-0.8,5.2-2.4s2.1-4,2.1-7.3c0-3.1-0.7-5.4-2.1-7s-3.1-2.4-5.2-2.4
			s-3.9,0.8-5.3,2.4S1102.3,217.2,1102.3,220.4z"/>
		<path class="st12" d="M1126.3,232.9V208h3.8v3.5c0.8-1.2,1.8-2.2,3.1-2.9s2.8-1.1,4.4-1.1c1.8,0,3.4,0.4,4.5,1.1s2,1.8,2.5,3.2
			c2-2.9,4.5-4.4,7.7-4.4c2.5,0,4.4,0.7,5.7,2.1s2,3.5,2,6.3v17.1h-4.2v-15.7c0-1.7-0.1-2.9-0.4-3.6s-0.8-1.3-1.5-1.8
			s-1.6-0.7-2.5-0.7c-1.8,0-3.2,0.6-4.4,1.7s-1.7,3-1.7,5.6v14.5h-4.2v-16.2c0-1.9-0.3-3.3-1-4.2s-1.8-1.4-3.4-1.4
			c-1.2,0-2.3,0.3-3.3,0.9s-1.7,1.5-2.2,2.7s-0.7,2.9-0.7,5.2v12.9L1126.3,232.9L1126.3,232.9z"/>
		<path class="st12" d="M1183.3,224.9l4.4,0.5c-0.7,2.5-2,4.5-3.8,5.9s-4.2,2.1-7.1,2.1c-3.6,0-6.5-1.1-8.7-3.4s-3.2-5.4-3.2-9.4
			c0-4.2,1.1-7.4,3.2-9.8s5-3.5,8.4-3.5c3.3,0,6,1.1,8.2,3.4s3.2,5.5,3.2,9.6c0,0.3,0,0.6,0,1.1h-18.6c0.2,2.7,0.9,4.8,2.3,6.3
			s3.1,2.2,5.2,2.2c1.5,0,2.9-0.4,4-1.2S1182.6,226.6,1183.3,224.9z M1169.4,218h13.9c-0.2-2.1-0.7-3.7-1.6-4.7
			c-1.3-1.6-3.1-2.4-5.2-2.4c-1.9,0-3.6,0.6-4.9,1.9S1169.6,215.9,1169.4,218z"/>
		<path class="st12" d="M1206.2,232.9v-34.4h4.2v34.4H1206.2z"/>
		<path class="st12" d="M1215.4,220.4c0-4.6,1.3-8,3.8-10.2c2.1-1.8,4.8-2.8,7.8-2.8c3.4,0,6.2,1.1,8.4,3.4s3.3,5.3,3.3,9.3
			c0,3.2-0.5,5.7-1.4,7.6s-2.4,3.3-4.2,4.3s-3.8,1.5-6,1.5c-3.5,0-6.3-1.1-8.4-3.4S1215.4,224.6,1215.4,220.4z M1219.7,220.4
			c0,3.2,0.7,5.6,2.1,7.2s3.1,2.4,5.3,2.4c2.1,0,3.8-0.8,5.2-2.4s2.1-4,2.1-7.3c0-3.1-0.7-5.4-2.1-7s-3.1-2.4-5.2-2.4
			s-3.9,0.8-5.3,2.4S1219.7,217.2,1219.7,220.4z"/>
		<path class="st12" d="M1259.9,229.8c-1.6,1.3-3.1,2.3-4.5,2.8s-3,0.8-4.7,0.8c-2.7,0-4.8-0.7-6.3-2s-2.2-3-2.2-5.1
			c0-1.2,0.3-2.3,0.8-3.3s1.3-1.8,2.2-2.4s1.9-1.1,3-1.4c0.8-0.2,2.1-0.4,3.8-0.6c3.4-0.4,5.9-0.9,7.5-1.5c0-0.6,0-0.9,0-1.1
			c0-1.7-0.4-2.9-1.2-3.6c-1.1-1-2.7-1.4-4.8-1.4c-2,0-3.4,0.3-4.4,1s-1.6,1.9-2.1,3.7l-4.1-0.6c0.4-1.8,1-3.2,1.9-4.3
			s2.1-1.9,3.7-2.5s3.5-0.9,5.6-0.9s3.9,0.3,5.2,0.8s2.3,1.1,2.9,1.9s1.1,1.7,1.3,2.9c0.1,0.7,0.2,2,0.2,3.9v5.6
			c0,3.9,0.1,6.4,0.3,7.4s0.5,2,1.1,3h-4.4C1260.3,232,1260,231,1259.9,229.8z M1259.5,220.4c-1.5,0.6-3.8,1.2-6.9,1.6
			c-1.7,0.3-3,0.5-3.7,0.8s-1.3,0.8-1.7,1.4s-0.6,1.3-0.6,2c0,1.1,0.4,2.1,1.3,2.8s2.1,1.1,3.7,1.1s3.1-0.4,4.3-1.1s2.2-1.7,2.8-2.9
			c0.5-1,0.7-2.4,0.7-4.2L1259.5,220.4L1259.5,220.4z"/>
		<path class="st12" d="M1286.5,232.9v-3.1c-1.6,2.5-3.9,3.7-7,3.7c-2,0-3.8-0.5-5.5-1.6s-3-2.6-3.9-4.6s-1.4-4.2-1.4-6.8
			c0-2.5,0.4-4.7,1.2-6.8s2.1-3.6,3.7-4.7s3.5-1.6,5.6-1.6c1.5,0,2.8,0.3,4,0.9s2.1,1.5,2.9,2.5v-12.3h4.2v34.4L1286.5,232.9
			L1286.5,232.9z M1273.1,220.5c0,3.2,0.7,5.6,2,7.1s2.9,2.4,4.8,2.4c1.8,0,3.4-0.8,4.7-2.3s1.9-3.8,1.9-6.9c0-3.4-0.7-5.9-2-7.5
			s-2.9-2.4-4.9-2.4c-1.9,0-3.4,0.8-4.7,2.3S1273.1,217.2,1273.1,220.5z"/>
		<path class="st12" d="M1298.2,232.9v-4.8h4.8v4.8H1298.2z"/>
		<path class="st12" d="M1324.2,232.9v-34.4h13c2.3,0,4,0.1,5.2,0.3c1.7,0.3,3.1,0.8,4.2,1.6s2.1,1.9,2.8,3.3s1,3,1,4.7
			c0,2.9-0.9,5.4-2.8,7.4s-5.2,3-10.1,3h-8.8v14L1324.2,232.9L1324.2,232.9z M1328.8,214.9h8.9c2.9,0,5-0.5,6.3-1.6s1.9-2.6,1.9-4.6
			c0-1.4-0.4-2.7-1.1-3.7s-1.7-1.7-2.9-2c-0.8-0.2-2.2-0.3-4.2-0.3h-8.8v12.2L1328.8,214.9L1328.8,214.9z"/>
		<path class="st12" d="M1355.6,232.9v-34.4h4.2v34.4H1355.6z"/>
		<path class="st12" d="M1383.4,224.9l4.4,0.5c-0.7,2.5-2,4.5-3.8,5.9s-4.2,2.1-7.1,2.1c-3.6,0-6.5-1.1-8.7-3.4s-3.2-5.4-3.2-9.4
			c0-4.2,1.1-7.4,3.2-9.8s5-3.5,8.4-3.5c3.3,0,6,1.1,8.2,3.4s3.2,5.5,3.2,9.6c0,0.3,0,0.6,0,1.1h-18.6c0.2,2.7,0.9,4.8,2.3,6.3
			s3.1,2.2,5.2,2.2c1.5,0,2.9-0.4,4-1.2S1382.8,226.6,1383.4,224.9z M1369.6,218h13.9c-0.2-2.1-0.7-3.7-1.6-4.7
			c-1.3-1.6-3.1-2.4-5.2-2.4c-1.9,0-3.6,0.6-4.9,1.9S1369.7,215.9,1369.6,218z"/>
		<path class="st12" d="M1409.3,229.8c-1.6,1.3-3.1,2.3-4.5,2.8s-3,0.8-4.7,0.8c-2.7,0-4.8-0.7-6.3-2s-2.2-3-2.2-5.1
			c0-1.2,0.3-2.3,0.8-3.3s1.3-1.8,2.2-2.4s1.9-1.1,3-1.4c0.8-0.2,2.1-0.4,3.8-0.6c3.4-0.4,5.9-0.9,7.5-1.5c0-0.6,0-0.9,0-1.1
			c0-1.7-0.4-2.9-1.2-3.6c-1.1-1-2.7-1.4-4.8-1.4c-2,0-3.4,0.3-4.4,1s-1.6,1.9-2.1,3.7l-4.1-0.6c0.4-1.8,1-3.2,1.9-4.3
			s2.1-1.9,3.7-2.5s3.5-0.9,5.6-0.9s3.9,0.3,5.2,0.8s2.3,1.1,2.9,1.9s1.1,1.7,1.3,2.9c0.1,0.7,0.2,2,0.2,3.9v5.6
			c0,3.9,0.1,6.4,0.3,7.4s0.5,2,1.1,3h-4.4C1409.7,232,1409.4,231,1409.3,229.8z M1409,220.4c-1.5,0.6-3.8,1.2-6.9,1.6
			c-1.7,0.3-3,0.5-3.7,0.8s-1.3,0.8-1.7,1.4s-0.6,1.3-0.6,2c0,1.1,0.4,2.1,1.3,2.8s2.1,1.1,3.7,1.1s3.1-0.4,4.3-1.1s2.2-1.7,2.8-2.9
			c0.5-1,0.7-2.4,0.7-4.2L1409,220.4L1409,220.4z"/>
		<path class="st12" d="M1418.1,225.4l4.2-0.7c0.2,1.7,0.9,3,2,3.8s2.6,1.3,4.5,1.3s3.4-0.4,4.3-1.2s1.4-1.7,1.4-2.8
			c0-1-0.4-1.7-1.2-2.3c-0.6-0.4-2-0.9-4.3-1.4c-3.1-0.8-5.2-1.5-6.4-2s-2.1-1.4-2.7-2.4s-0.9-2.1-0.9-3.3c0-1.1,0.3-2.1,0.8-3.1
			s1.2-1.7,2.1-2.4c0.7-0.5,1.6-0.9,2.7-1.2s2.3-0.5,3.6-0.5c2,0,3.7,0.3,5.1,0.8s2.6,1.3,3.3,2.3s1.2,2.2,1.5,3.9l-4.1,0.6
			c-0.2-1.3-0.7-2.3-1.6-3s-2.2-1.1-3.8-1.1c-1.9,0-3.3,0.3-4.1,1s-1.2,1.4-1.2,2.3c0,0.5,0.2,1,0.5,1.5s0.9,0.8,1.6,1.1
			c0.4,0.2,1.7,0.5,3.7,1.1c3,0.8,5.1,1.4,6.2,2s2.1,1.2,2.8,2.2s1,2.2,1,3.6c0,1.4-0.4,2.7-1.2,4s-2,2.2-3.6,2.9s-3.3,1-5.3,1
			c-3.2,0-5.7-0.7-7.4-2S1418.5,228.1,1418.1,225.4z"/>
		<path class="st12" d="M1460.8,224.9l4.4,0.5c-0.7,2.5-2,4.5-3.8,5.9s-4.2,2.1-7.1,2.1c-3.6,0-6.5-1.1-8.7-3.4s-3.2-5.4-3.2-9.4
			c0-4.2,1.1-7.4,3.2-9.8s5-3.5,8.4-3.5c3.3,0,6,1.1,8.2,3.4s3.2,5.5,3.2,9.6c0,0.3,0,0.6,0,1.1h-18.6c0.2,2.7,0.9,4.8,2.3,6.3
			s3.1,2.2,5.2,2.2c1.5,0,2.9-0.4,4-1.2S1460.2,226.6,1460.8,224.9z M1447,218h13.9c-0.2-2.1-0.7-3.7-1.6-4.7
			c-1.3-1.6-3.1-2.4-5.2-2.4c-1.9,0-3.6,0.6-4.9,1.9S1447.1,215.9,1447,218z"/>
		<path class="st12" d="M1493,229.1l0.6,3.7c-1.2,0.3-2.3,0.4-3.2,0.4c-1.5,0-2.7-0.2-3.6-0.7s-1.4-1.1-1.8-1.9s-0.5-2.4-0.5-5
			v-14.3h-3.1V208h3.1v-6.2l4.2-2.5v8.7h4.2v3.3h-4.2v14.6c0,1.2,0.1,2,0.2,2.3s0.4,0.6,0.7,0.8s0.8,0.3,1.4,0.3
			C1491.6,229.3,1492.2,229.2,1493,229.1z"/>
		<path class="st12" d="M1497.1,232.9V208h3.8v3.8c1-1.8,1.9-2.9,2.7-3.5s1.7-0.8,2.7-0.8c1.4,0,2.9,0.5,4.3,1.4l-1.5,3.9
			c-1-0.6-2.1-0.9-3.1-0.9c-0.9,0-1.8,0.3-2.5,0.8s-1.3,1.3-1.6,2.3c-0.5,1.5-0.7,3.1-0.7,4.9v13H1497.1z"/>
		<path class="st12" d="M1512.9,242.5l-0.5-4c0.9,0.3,1.7,0.4,2.4,0.4c0.9,0,1.7-0.2,2.3-0.5s1-0.8,1.4-1.3c0.3-0.4,0.7-1.5,1.3-3.1
			c0.1-0.2,0.2-0.6,0.4-1l-9.4-24.9h4.5l5.2,14.4c0.7,1.8,1.3,3.8,1.8,5.8c0.5-1.9,1.1-3.8,1.7-5.7l5.3-14.5h4.2l-9.5,25.3
			c-1,2.7-1.8,4.6-2.4,5.6c-0.8,1.4-1.6,2.4-2.6,3.1s-2.1,1-3.5,1C1514.8,243,1513.9,242.8,1512.9,242.5z"/>
		<path class="st12" d="M1566.7,229.8c-1.6,1.3-3.1,2.3-4.5,2.8s-3,0.8-4.7,0.8c-2.7,0-4.8-0.7-6.3-2s-2.2-3-2.2-5.1
			c0-1.2,0.3-2.3,0.8-3.3s1.3-1.8,2.2-2.4s1.9-1.1,3-1.4c0.8-0.2,2.1-0.4,3.8-0.6c3.4-0.4,5.9-0.9,7.5-1.5c0-0.6,0-0.9,0-1.1
			c0-1.7-0.4-2.9-1.2-3.6c-1.1-1-2.7-1.4-4.8-1.4c-2,0-3.4,0.3-4.4,1s-1.6,1.9-2.1,3.7l-4.1-0.6c0.4-1.8,1-3.2,1.9-4.3
			s2.1-1.9,3.7-2.5s3.5-0.9,5.6-0.9s3.9,0.3,5.2,0.8s2.3,1.1,2.9,1.9s1.1,1.7,1.3,2.9c0.1,0.7,0.2,2,0.2,3.9v5.6
			c0,3.9,0.1,6.4,0.3,7.4s0.5,2,1.1,3h-4.4C1567.1,232,1566.8,231,1566.7,229.8z M1566.3,220.4c-1.5,0.6-3.8,1.2-6.9,1.6
			c-1.7,0.3-3,0.5-3.7,0.8s-1.3,0.8-1.7,1.4s-0.6,1.3-0.6,2c0,1.1,0.4,2.1,1.3,2.8s2.1,1.1,3.7,1.1s3.1-0.4,4.3-1.1s2.2-1.7,2.8-2.9
			c0.5-1,0.7-2.4,0.7-4.2L1566.3,220.4L1566.3,220.4z"/>
		<path class="st12" d="M1576.4,234.9l4.1,0.6c0.2,1.3,0.6,2.2,1.4,2.8c1,0.8,2.5,1.2,4.3,1.2c2,0,3.5-0.4,4.5-1.2s1.8-1.9,2.2-3.3
			c0.2-0.9,0.3-2.7,0.3-5.4c-1.8,2.2-4.1,3.3-6.9,3.3c-3.4,0-6.1-1.2-7.9-3.7s-2.8-5.4-2.8-8.9c0-2.4,0.4-4.6,1.3-6.6
			s2.1-3.6,3.7-4.7s3.6-1.6,5.8-1.6c2.9,0,5.4,1.2,7.3,3.6v-3h3.9v21.5c0,3.9-0.4,6.6-1.2,8.2s-2,2.9-3.8,3.8s-3.8,1.4-6.3,1.4
			c-3,0-5.4-0.7-7.2-2S1576.3,237.6,1576.4,234.9z M1579.9,220c0,3.3,0.6,5.6,1.9,7.1s2.9,2.3,4.9,2.3c1.9,0,3.6-0.7,4.9-2.2
			s2-3.8,2-7c0-3-0.7-5.3-2-6.9s-3-2.3-4.9-2.3s-3.5,0.8-4.8,2.3S1579.9,217,1579.9,220z"/>
		<path class="st12" d="M1620.1,229.8c-1.6,1.3-3.1,2.3-4.5,2.8s-3,0.8-4.7,0.8c-2.7,0-4.8-0.7-6.3-2s-2.2-3-2.2-5.1
			c0-1.2,0.3-2.3,0.8-3.3s1.3-1.8,2.2-2.4s1.9-1.1,3-1.4c0.8-0.2,2.1-0.4,3.8-0.6c3.4-0.4,5.9-0.9,7.5-1.5c0-0.6,0-0.9,0-1.1
			c0-1.7-0.4-2.9-1.2-3.6c-1.1-1-2.7-1.4-4.8-1.4c-2,0-3.4,0.3-4.4,1s-1.6,1.9-2.1,3.7l-4.1-0.6c0.4-1.8,1-3.2,1.9-4.3
			s2.1-1.9,3.7-2.5s3.5-0.9,5.6-0.9s3.9,0.3,5.2,0.8s2.3,1.1,2.9,1.9s1.1,1.7,1.3,2.9c0.1,0.7,0.2,2,0.2,3.9v5.6
			c0,3.9,0.1,6.4,0.3,7.4s0.5,2,1.1,3h-4.4C1620.5,232,1620.2,231,1620.1,229.8z M1619.7,220.4c-1.5,0.6-3.8,1.2-6.9,1.6
			c-1.7,0.3-3,0.5-3.7,0.8s-1.3,0.8-1.7,1.4s-0.6,1.3-0.6,2c0,1.1,0.4,2.1,1.3,2.8s2.1,1.1,3.7,1.1s3.1-0.4,4.3-1.1s2.2-1.7,2.8-2.9
			c0.5-1,0.7-2.4,0.7-4.2L1619.7,220.4L1619.7,220.4z"/>
		<path class="st12" d="M1630.6,203.4v-4.9h4.2v4.9H1630.6z M1630.6,232.9V208h4.2v24.9H1630.6z"/>
		<path class="st12" d="M1641.2,232.9V208h3.8v3.5c1.8-2.7,4.5-4.1,7.9-4.1c1.5,0,2.9,0.3,4.1,0.8s2.2,1.2,2.8,2.1s1.1,1.9,1.3,3.1
			c0.2,0.8,0.2,2.1,0.2,4.1v15.3h-4.2v-15.1c0-1.7-0.2-3-0.5-3.9s-0.9-1.5-1.7-2s-1.8-0.8-2.9-0.8c-1.8,0-3.3,0.6-4.7,1.7
			s-2,3.3-2,6.5v13.6L1641.2,232.9L1641.2,232.9z"/>
		<path class="st12" d="M1669.1,232.9v-4.8h4.8v4.8H1669.1z"/>
	</g>
	<text transform="matrix(1 0 0 1 1198.252 991.875)" class="st13 st8 st10">May be it is a sign?</text>
	<g class="st11">
		<path class="st12" d="M1201.8,991.9v-34.4h6.8l8.1,24.3c0.8,2.3,1.3,4,1.6,5.1c0.4-1.3,1-3.1,1.8-5.5l8.2-23.9h6.1v34.4h-4.4
			v-28.8l-10,28.8h-4.1l-9.9-29.3v29.3L1201.8,991.9L1201.8,991.9z"/>
		<path class="st12" d="M1257.6,988.8c-1.6,1.3-3.1,2.3-4.5,2.8s-3,0.8-4.7,0.8c-2.7,0-4.8-0.7-6.3-2s-2.2-3-2.2-5.1
			c0-1.2,0.3-2.3,0.8-3.3s1.3-1.8,2.2-2.4s1.9-1.1,3-1.4c0.8-0.2,2.1-0.4,3.8-0.6c3.4-0.4,5.9-0.9,7.5-1.5c0-0.6,0-0.9,0-1.1
			c0-1.7-0.4-2.9-1.2-3.6c-1.1-1-2.7-1.4-4.8-1.4c-2,0-3.4,0.3-4.4,1s-1.6,1.9-2.1,3.7l-4.1-0.6c0.4-1.8,1-3.2,1.9-4.3
			s2.1-1.9,3.7-2.5s3.5-0.9,5.6-0.9s3.9,0.3,5.2,0.8s2.3,1.1,2.9,1.9s1.1,1.7,1.3,2.9c0.1,0.7,0.2,2,0.2,3.9v5.6
			c0,3.9,0.1,6.4,0.3,7.4s0.5,2,1.1,3h-4.4C1258,991,1257.8,990,1257.6,988.8z M1257.3,979.4c-1.5,0.6-3.8,1.2-6.9,1.6
			c-1.7,0.3-3,0.5-3.7,0.8s-1.3,0.8-1.7,1.4s-0.6,1.3-0.6,2c0,1.1,0.4,2.1,1.3,2.8s2.1,1.1,3.7,1.1s3.1-0.4,4.3-1.1s2.2-1.7,2.8-2.9
			c0.5-1,0.7-2.4,0.7-4.2L1257.3,979.4L1257.3,979.4z"/>
		<path class="st12" d="M1267.9,1001.5l-0.5-4c0.9,0.3,1.7,0.4,2.4,0.4c0.9,0,1.7-0.2,2.3-0.5s1-0.8,1.4-1.3
			c0.3-0.4,0.7-1.5,1.3-3.1c0.1-0.2,0.2-0.6,0.4-1l-9.4-24.9h4.5l5.2,14.4c0.7,1.8,1.3,3.8,1.8,5.8c0.5-1.9,1.1-3.8,1.7-5.7
			l5.3-14.5h4.2l-9.5,25.3c-1,2.7-1.8,4.6-2.4,5.6c-0.8,1.4-1.6,2.4-2.6,3.1s-2.1,1-3.5,1C1269.8,1002,1268.9,1001.8,1267.9,1001.5z
			"/>
		<path class="st12" d="M1309.3,991.9h-3.9v-34.4h4.2v12.3c1.8-2.2,4.1-3.4,6.8-3.4c1.5,0,3,0.3,4.3,0.9s2.5,1.5,3.4,2.6
			s1.6,2.5,2.1,4s0.8,3.3,0.8,5.1c0,4.3-1.1,7.6-3.2,9.9s-4.6,3.5-7.6,3.5c-2.9,0-5.2-1.2-6.9-3.7L1309.3,991.9L1309.3,991.9z
			 M1309.3,979.2c0,3,0.4,5.1,1.2,6.5c1.3,2.2,3.1,3.3,5.4,3.3c1.8,0,3.4-0.8,4.8-2.4s2-4,2-7.2c0-3.3-0.6-5.6-1.9-7.2
			s-2.8-2.3-4.7-2.3c-1.8,0-3.4,0.8-4.8,2.4S1309.3,976.2,1309.3,979.2z"/>
		<path class="st12" d="M1349.2,983.9l4.4,0.5c-0.7,2.5-2,4.5-3.8,5.9s-4.2,2.1-7.1,2.1c-3.6,0-6.5-1.1-8.7-3.4s-3.2-5.4-3.2-9.4
			c0-4.2,1.1-7.4,3.2-9.8s5-3.5,8.4-3.5c3.3,0,6,1.1,8.2,3.4s3.2,5.5,3.2,9.6c0,0.3,0,0.6,0,1.1h-18.6c0.2,2.7,0.9,4.8,2.3,6.3
			s3.1,2.2,5.2,2.2c1.5,0,2.9-0.4,4-1.2S1348.5,985.6,1349.2,983.9z M1335.3,977h13.9c-0.2-2.1-0.7-3.7-1.6-4.7
			c-1.3-1.6-3.1-2.4-5.2-2.4c-1.9,0-3.6,0.6-4.9,1.9S1335.5,974.9,1335.3,977z"/>
		<path class="st12" d="M1372.2,962.4v-4.9h4.2v4.9H1372.2z M1372.2,991.9V967h4.2v24.9H1372.2z"/>
		<path class="st12" d="M1392,988.1l0.6,3.7c-1.2,0.3-2.3,0.4-3.2,0.4c-1.5,0-2.7-0.2-3.6-0.7s-1.4-1.1-1.8-1.9s-0.5-2.4-0.5-5
			v-14.3h-3.1V967h3.1v-6.2l4.2-2.5v8.7h4.2v3.3h-4.2v14.6c0,1.2,0.1,2,0.2,2.3s0.4,0.6,0.7,0.8s0.8,0.3,1.4,0.3
			C1390.7,988.3,1391.3,988.2,1392,988.1z"/>
		<path class="st12" d="M1409.5,962.4v-4.9h4.2v4.9H1409.5z M1409.5,991.9V967h4.2v24.9H1409.5z"/>
		<path class="st12" d="M1418.5,984.4l4.2-0.7c0.2,1.7,0.9,3,2,3.8s2.6,1.3,4.5,1.3s3.4-0.4,4.3-1.2s1.4-1.7,1.4-2.8
			c0-1-0.4-1.7-1.2-2.3c-0.6-0.4-2-0.9-4.3-1.4c-3.1-0.8-5.2-1.5-6.4-2s-2.1-1.4-2.7-2.4s-0.9-2.1-0.9-3.3c0-1.1,0.3-2.1,0.8-3.1
			s1.2-1.7,2.1-2.4c0.7-0.5,1.6-0.9,2.7-1.2s2.3-0.5,3.6-0.5c2,0,3.7,0.3,5.1,0.8s2.6,1.3,3.3,2.3s1.2,2.2,1.5,3.9l-4.1,0.6
			c-0.2-1.3-0.7-2.3-1.6-3s-2.2-1.1-3.8-1.1c-1.9,0-3.3,0.3-4.1,1s-1.2,1.4-1.2,2.3c0,0.5,0.2,1,0.5,1.5s0.9,0.8,1.6,1.1
			c0.4,0.2,1.7,0.5,3.7,1.1c3,0.8,5.1,1.4,6.2,2s2.1,1.2,2.8,2.2s1,2.2,1,3.6c0,1.4-0.4,2.7-1.2,4s-2,2.2-3.6,2.9s-3.3,1-5.3,1
			c-3.2,0-5.7-0.7-7.4-2S1418.9,987.1,1418.5,984.4z"/>
		<path class="st12" d="M1473.7,988.8c-1.6,1.3-3.1,2.3-4.5,2.8s-3,0.8-4.7,0.8c-2.7,0-4.8-0.7-6.3-2s-2.2-3-2.2-5.1
			c0-1.2,0.3-2.3,0.8-3.3s1.3-1.8,2.2-2.4s1.9-1.1,3-1.4c0.8-0.2,2.1-0.4,3.8-0.6c3.4-0.4,5.9-0.9,7.5-1.5c0-0.6,0-0.9,0-1.1
			c0-1.7-0.4-2.9-1.2-3.6c-1.1-1-2.7-1.4-4.8-1.4c-2,0-3.4,0.3-4.4,1s-1.6,1.9-2.1,3.7l-4.1-0.6c0.4-1.8,1-3.2,1.9-4.3
			s2.1-1.9,3.7-2.5s3.5-0.9,5.6-0.9s3.9,0.3,5.2,0.8s2.3,1.1,2.9,1.9s1.1,1.7,1.3,2.9c0.1,0.7,0.2,2,0.2,3.9v5.6
			c0,3.9,0.1,6.4,0.3,7.4s0.5,2,1.1,3h-4.4C1474.1,991,1473.9,990,1473.7,988.8z M1473.4,979.4c-1.5,0.6-3.8,1.2-6.9,1.6
			c-1.7,0.3-3,0.5-3.7,0.8s-1.3,0.8-1.7,1.4s-0.6,1.3-0.6,2c0,1.1,0.4,2.1,1.3,2.8s2.1,1.1,3.7,1.1s3.1-0.4,4.3-1.1s2.2-1.7,2.8-2.9
			c0.5-1,0.7-2.4,0.7-4.2L1473.4,979.4L1473.4,979.4z"/>
		<path class="st12" d="M1495.8,984.4l4.2-0.7c0.2,1.7,0.9,3,2,3.8s2.6,1.3,4.5,1.3s3.4-0.4,4.3-1.2s1.4-1.7,1.4-2.8
			c0-1-0.4-1.7-1.2-2.3c-0.6-0.4-2-0.9-4.3-1.4c-3.1-0.8-5.2-1.5-6.4-2s-2.1-1.4-2.7-2.4s-0.9-2.1-0.9-3.3c0-1.1,0.3-2.1,0.8-3.1
			s1.2-1.7,2.1-2.4c0.7-0.5,1.6-0.9,2.7-1.2s2.3-0.5,3.6-0.5c2,0,3.7,0.3,5.1,0.8s2.6,1.3,3.3,2.3s1.2,2.2,1.5,3.9l-4.1,0.6
			c-0.2-1.3-0.7-2.3-1.6-3s-2.2-1.1-3.8-1.1c-1.9,0-3.3,0.3-4.1,1s-1.2,1.4-1.2,2.3c0,0.5,0.2,1,0.5,1.5s0.9,0.8,1.6,1.1
			c0.4,0.2,1.7,0.5,3.7,1.1c3,0.8,5.1,1.4,6.2,2s2.1,1.2,2.8,2.2s1,2.2,1,3.6c0,1.4-0.4,2.7-1.2,4s-2,2.2-3.6,2.9s-3.3,1-5.3,1
			c-3.2,0-5.7-0.7-7.4-2S1496.3,987.1,1495.8,984.4z"/>
		<path class="st12" d="M1521.5,962.4v-4.9h4.2v4.9H1521.5z M1521.5,991.9V967h4.2v24.9H1521.5z"/>
		<path class="st12" d="M1531.4,993.9l4.1,0.6c0.2,1.3,0.6,2.2,1.4,2.8c1,0.8,2.5,1.2,4.3,1.2c2,0,3.5-0.4,4.5-1.2s1.8-1.9,2.2-3.3
			c0.2-0.9,0.3-2.7,0.3-5.4c-1.8,2.2-4.1,3.3-6.9,3.3c-3.4,0-6.1-1.2-7.9-3.7s-2.8-5.4-2.8-8.9c0-2.4,0.4-4.6,1.3-6.6
			s2.1-3.6,3.7-4.7s3.6-1.6,5.8-1.6c2.9,0,5.4,1.2,7.3,3.6v-3h3.9v21.5c0,3.9-0.4,6.6-1.2,8.2s-2,2.9-3.8,3.8s-3.8,1.4-6.3,1.4
			c-3,0-5.4-0.7-7.2-2S1531.4,996.6,1531.4,993.9z M1534.9,979c0,3.3,0.6,5.6,1.9,7.1s2.9,2.3,4.9,2.3c1.9,0,3.6-0.7,4.9-2.2
			s2-3.8,2-7c0-3-0.7-5.3-2-6.9s-3-2.3-4.9-2.3s-3.5,0.8-4.8,2.3S1534.9,976,1534.9,979z"/>
		<path class="st12" d="M1558.9,991.9V967h3.8v3.5c1.8-2.7,4.5-4.1,7.9-4.1c1.5,0,2.9,0.3,4.1,0.8s2.2,1.2,2.8,2.1s1.1,1.9,1.3,3.1
			c0.2,0.8,0.2,2.1,0.2,4.1v15.3h-4.2v-15.1c0-1.7-0.2-3-0.5-3.9s-0.9-1.5-1.7-2s-1.8-0.8-2.9-0.8c-1.8,0-3.3,0.6-4.7,1.7
			s-2,3.3-2,6.5v13.6h-4.1V991.9z"/>
		<path class="st12" d="M1593.5,983.4c0-0.6,0-1,0-1.3c0-1.7,0.2-3.1,0.7-4.3c0.3-0.9,0.9-1.8,1.7-2.7c0.6-0.7,1.6-1.7,3-2.9
			s2.4-2.3,2.8-3.1s0.7-1.6,0.7-2.5c0-1.6-0.6-3.1-1.9-4.3s-2.9-1.9-4.7-1.9c-1.8,0-3.3,0.6-4.5,1.7s-2,2.9-2.4,5.3l-4.3-0.5
			c0.4-3.2,1.6-5.7,3.5-7.4s4.5-2.6,7.7-2.6c3.4,0,6,0.9,8,2.7s3,4,3,6.6c0,1.5-0.4,2.9-1.1,4.1s-2.1,2.8-4.1,4.6
			c-1.4,1.2-2.3,2.1-2.7,2.7s-0.7,1.2-0.9,2s-0.3,2-0.4,3.7h-4.1V983.4z M1593.2,991.9v-4.8h4.8v4.8H1593.2z"/>
	</g>
	<circle class="st14" cx="1125" cy="973" r="31.5"/>
</g>
</svg>
