<?xml version="1.0" standalone="no"?>
<!DOCTYPE svg PUBLIC "-//W3C//DTD SVG 20010904//EN"
 "http://www.w3.org/TR/2001/REC-SVG-20010904/DTD/svg10.dtd">
<svg version="1.0" xmlns="http://www.w3.org/2000/svg"
 width="700.000000pt" height="700.000000pt" viewBox="0 0 700.000000 700.000000"
 preserveAspectRatio="xMidYMid meet">
<metadata>
Created by potrace 1.11, written by Peter Selinger 2001-2013
</metadata>
<g transform="translate(0.000000,700.000000) scale(0.100000,-0.100000)"
fill="#000000" stroke="none">
<path d="M5730 6009 c-74 -10 -160 -21 -191 -24 -31 -4 -78 -9 -104 -13 l-46
-7 45 -60 45 -60 -26 -20 c-15 -11 -371 -266 -792 -567 -422 -300 -836 -597
-921 -658 -698 -501 -689 -495 -713 -481 -11 7 -34 21 -51 30 -17 10 -98 58
-181 107 -82 50 -190 114 -240 143 -49 28 -97 56 -105 62 -31 19 -299 178
-341 202 -24 13 -238 140 -476 281 -237 140 -437 257 -444 258 -9 2 -133 -183
-126 -188 30 -19 309 -184 311 -184 2 0 43 -25 92 -55 49 -30 121 -72 159 -95
109 -62 150 -87 290 -170 125 -74 309 -183 883 -523 l263 -155 637 455 c350
251 658 471 684 489 96 68 1213 867 1225 876 9 7 24 -8 55 -51 24 -33 46 -60
49 -60 4 -1 37 70 74 157 37 86 73 171 81 187 17 38 54 134 54 140 0 8 -45 4
-190 -16z"/>
<path d="M5912 3045 l0 -2035 123 0 123 0 0 2035 0 2035 -123 0 -123 0 0
-2035z"/>
<path d="M4928 4542 l-28 -3 0 -1385 c0 -761 0 -1494 0 -1629 0 -135 0 -306 0
-380 l0 -136 122 3 123 3 0 1759 c0 1400 -2 1759 -12 1763 -15 6 -166 9 -205
5z"/>
<path d="M842 2580 l0 -1570 123 0 123 0 0 1570 0 1570 -123 0 -123 0 0 -1570z"/>
<path d="M1856 3791 c-1 -3 -2 -629 -1 -1391 l1 -1385 122 0 122 0 1 1384 c0
761 -3 1386 -6 1390 -8 8 -235 10 -239 2z"/>
<path d="M3885 2320 l0 -1310 122 0 123 0 0 1310 0 1310 -123 0 -122 0 0
-1310z"/>
<path d="M2880 3122 c-7 -3 -10 -370 -10 -1058 l0 -1054 123 0 123 0 -1 1049
c0 577 -3 1052 -6 1056 -7 6 -211 13 -229 7z"/>
</g>
</svg>
